<?xml version="1.0" encoding="UTF-8" standalone="no"?>
<svg
   xmlns:dc="http://purl.org/dc/elements/1.1/"
   xmlns:cc="http://creativecommons.org/ns#"
   xmlns:rdf="http://www.w3.org/1999/02/22-rdf-syntax-ns#"
   xmlns:svg="http://www.w3.org/2000/svg"
   xmlns="http://www.w3.org/2000/svg"
   viewBox="0 0 925.41333 484.79999"
   height="484.79999"
   width="925.41333"
   xml:space="preserve"
   id="svg2"
   version="1.1"><metadata
     id="metadata8"><rdf:RDF><cc:Work
         rdf:about=""><dc:format>image/svg+xml</dc:format><dc:type
           rdf:resource="http://purl.org/dc/dcmitype/StillImage" /><dc:title></dc:title></cc:Work></rdf:RDF></metadata><defs
     id="defs6" /><g
     transform="matrix(1.3333333,0,0,-1.3333333,0,484.8)"
     id="g10"><g
       transform="scale(0.1)"
       id="g12"><path
         id="path14"
         style="fill:#f3f2f1;fill-opacity:1;fill-rule:nonzero;stroke:none"
         d="m 6897.56,3037.29 c 0,0 -83.56,51.01 -176.01,-147.79 -92.46,-198.8 -126.09,-312.75 -126.09,-312.75 0,0 -24.83,-41.85 -53.89,-16.13 -29.05,25.73 -70.27,100.18 -117.54,84.8 -49.01,-15.94 -63.33,-71.81 -50.95,-152.69 12.37,-80.89 32.96,-259.09 34.77,-275.21 1.77,-15.83 -6.47,-39.53 -29.08,-25.19 -22.6,14.35 -154.59,151.1 -215.73,84.58 -61.14,-66.51 10.36,-286.18 17.71,-310.34 7.35,-24.16 2.96,-34.76 -8.42,-41.22 -11.36,-6.45 -51.4,43.7 -90.53,81.05 -39.14,37.35 -91.06,73.81 -123.12,32.48 -32.06,-41.34 -36.77,-208.26 131.48,-473.05 l 85.99,-117.6 145.71,13.37 c 310.09,47.61 432.67,161.02 442.69,212.35 10.02,51.34 -51.6,66.44 -105.49,71.32 -53.87,4.88 -117.98,2.01 -120.59,14.83 -2.63,12.81 2.45,23.09 25.49,33.45 23.02,10.37 235.46,101.12 245.31,190.93 9.83,89.81 -179.99,99.18 -205.67,106.75 -25.68,7.58 -13.26,29.39 -0.18,38.47 13.32,9.25 161.05,111.03 230.09,154.95 69.04,43.92 101.68,91.46 81.42,138.86 -14.36,33.61 -63.13,32.79 -103.25,31.96 -14.45,-0.29 -27.77,-0.58 -37.96,0.72 -38.49,4.96 -23.31,51.19 -23.31,51.19 0,0 63.64,100.31 152.47,300.76 88.83,200.46 -7.08,230.06 -7.08,230.06 l 1.76,-0.91" /><path
         id="path16"
         style="fill:#dadbd8;fill-opacity:1;fill-rule:nonzero;stroke:none"
         d="m 6814.46,2859.38 c 0,0 -0.48,-1.49 -1.63,-4.3 -1.27,-2.99 -3.01,-7.12 -5.24,-12.43 -4.81,-11.08 -11.73,-27.08 -20.61,-47.57 -17.95,-41.3 -44.35,-100.87 -77.27,-174.34 -65.78,-146.97 -158.38,-349.22 -261.38,-572.25 -103.05,-223.1 -196.14,-425.12 -262.74,-571.71 -33.15,-73.18 -60.01,-132.46 -78.69,-173.68 -9.23,-20.33 -16.44,-36.19 -21.44,-47.18 -2.43,-5.23 -4.33,-9.29 -5.69,-12.23 -1.31,-2.74 -2.1,-4.1 -2.1,-4.1 0,0 0.47,1.49 1.63,4.31 1.27,2.98 3,7.1 5.25,12.42 4.8,11.08 11.72,27.07 20.6,47.57 17.95,41.29 44.35,100.85 77.26,174.32 65.78,146.97 158.39,349.25 261.43,572.35 103.01,223.02 196.1,425.02 262.68,571.62 33.17,73.18 60.02,132.46 78.71,173.68 9.23,20.34 16.44,36.2 21.44,47.2 2.43,5.22 4.33,9.28 5.69,12.22 1.31,2.75 2.1,4.1 2.1,4.1" /><path
         id="path18"
         style="fill:#dadbd8;fill-opacity:1;fill-rule:nonzero;stroke:none"
         d="m 6477.5,2538.94 c 0.32,0.11 1.77,-3.36 4.1,-9.71 2.36,-6.35 5.5,-15.63 9.26,-27.14 7.47,-23.03 16.94,-55.11 26.75,-90.7 9.48,-35.04 18.05,-66.73 24.68,-91.21 2.97,-10.84 5.51,-20.04 7.59,-27.59 1.82,-6.51 2.68,-10.17 2.36,-10.28 -0.33,-0.1 -1.8,3.34 -4.18,9.69 -2.35,6.36 -5.49,15.65 -9.12,27.2 -7.25,23.11 -16.3,55.3 -26.1,90.88 -9.72,34.96 -18.52,66.57 -25.32,91 -3.05,10.82 -5.63,20.03 -7.74,27.57 -1.78,6.52 -2.6,10.19 -2.28,10.29" /><path
         id="path20"
         style="fill:#dadbd8;fill-opacity:1;fill-rule:nonzero;stroke:none"
         d="m 6565.7,2280.21 c -0.43,1.29 64.83,23.79 145.73,50.23 80.92,26.46 146.85,46.85 147.27,45.55 0.42,-1.29 -64.81,-23.78 -145.74,-50.24 -80.9,-26.45 -146.84,-46.84 -147.26,-45.54" /><path
         id="path22"
         style="fill:#dadbd8;fill-opacity:1;fill-rule:nonzero;stroke:none"
         d="m 6392.04,1944.79 c 0,0.34 3.83,0.67 10.72,0.97 7.96,0.27 17.73,0.61 29.22,1.01 24.66,0.87 58.71,2.2 96.23,5.02 37.54,2.72 71.43,6.36 95.94,9.16 11.44,1.29 21.14,2.38 29.05,3.28 6.88,0.72 10.7,0.97 10.76,0.63 0.04,-0.34 -3.69,-1.22 -10.47,-2.54 -6.79,-1.3 -16.65,-3.01 -28.88,-4.83 -24.44,-3.7 -58.38,-7.89 -96.04,-10.63 -37.63,-2.82 -71.81,-3.6 -96.53,-3.58 -12.36,0.06 -22.36,0.22 -29.28,0.55 -6.9,0.29 -10.72,0.62 -10.72,0.96" /><path
         id="path24"
         style="fill:#dadbd8;fill-opacity:1;fill-rule:nonzero;stroke:none"
         d="m 6260.75,2161.26 c 0.29,0.18 2.44,-2.64 6.07,-7.89 3.63,-5.26 8.75,-12.95 14.98,-22.51 12.45,-19.12 29.37,-45.72 47.81,-75.25 18.44,-29.55 34.89,-56.44 46.6,-76.03 5.85,-9.8 10.51,-17.77 13.63,-23.34 3.14,-5.57 4.73,-8.73 4.44,-8.91 -0.3,-0.18 -2.43,2.64 -6.07,7.9 -3.62,5.25 -8.74,12.94 -14.97,22.5 -12.46,19.12 -29.38,45.72 -47.82,75.26 -18.44,29.54 -34.88,56.42 -46.59,76.02 -5.85,9.79 -10.51,17.77 -13.64,23.34 -3.13,5.57 -4.72,8.73 -4.44,8.91" /><path
         id="path26"
         style="fill:#dadbd8;fill-opacity:1;fill-rule:nonzero;stroke:none"
         d="m 6069.83,1884.63 c 0.29,0.18 2.99,-3.46 7.64,-10.19 5.1,-7.61 11.56,-17.26 19.28,-28.79 16.09,-24.42 38.04,-58.34 62.03,-95.96 23.99,-37.64 45.48,-71.86 60.83,-96.76 7.19,-11.87 13.21,-21.8 17.95,-29.63 4.15,-7.05 6.31,-11.04 6.01,-11.22 -0.28,-0.19 -2.98,3.46 -7.63,10.19 -5.09,7.6 -11.56,17.26 -19.28,28.78 -16.09,24.43 -38.05,58.34 -62.04,95.98 -23.98,37.63 -45.47,71.84 -60.81,96.75 -7.2,11.86 -13.21,21.79 -17.96,29.62 -4.15,7.06 -6.31,11.05 -6.02,11.23" /><path
         id="path28"
         style="fill:#dadbd8;fill-opacity:1;fill-rule:nonzero;stroke:none"
         d="m 6241.26,1619.76 c -0.01,0.35 4.81,0.87 13.54,1.55 9.68,0.67 22.1,1.55 37.01,2.6 31.24,2.22 74.36,5.42 121.87,10.28 47.53,4.77 90.44,10.22 121.48,14.35 14.81,1.96 27.15,3.58 36.77,4.85 8.7,1.1 13.53,1.55 13.58,1.22 0.06,-0.34 -4.67,-1.44 -13.28,-3.12 -8.6,-1.69 -21.09,-3.91 -36.57,-6.4 -30.94,-5.02 -73.86,-11.03 -121.48,-15.81 -47.6,-4.87 -90.86,-7.52 -122.18,-8.85 -15.66,-0.63 -28.34,-1 -37.11,-1.05 -8.77,-0.07 -13.62,0.04 -13.63,0.38" /><path
         id="path30"
         style="fill:#e7e8e5;fill-opacity:1;fill-rule:nonzero;stroke:none"
         d="m 942.727,2052.3 c 233.273,155.71 290.223,450.3 285.233,715.95 -0.84,44.36 4.82,91.01 -15.93,130.21 -20.77,39.2 -70.18,66.52 -110.69,48.44 -33.58,-14.98 -48.72,-53.05 -67.88,-84.45 -25.47,-41.75 -62.991,-76.07 -106.855,-97.71 -28.828,-14.22 -64.343,-22.64 -92.335,-6.85 -38.415,21.67 -42.161,74.54 -41.196,118.65 1.797,82.14 3.598,164.28 5.395,246.43 0.965,44.07 1.808,89.07 -11.442,131.12 -13.238,42.05 -43.32,81.37 -85.625,93.75 -42.308,12.38 -95.242,-11.02 -104.879,-54.02 -4.011,-17.91 -0.589,-36.6 -2.113,-54.87 -1.523,-18.28 -10.488,-38.4 -28.18,-43.25 -17.894,-4.9 -35.57,7.88 -48.734,20.97 -45.406,45.21 -75.797,103 -104.141,160.46 -28.355,57.45 -55.82,116.24 -96.89,165.42 -41.074,49.17 -98.344,88.5 -162.242,93.04 C 90.3086,3640.12 21.5547,3602.16 4.41797,3540.42 -12.7578,3478.53 23.0078,3414.93 62.1992,3364.03 120.332,3288.5 189.469,3221.45 266.723,3165.64 c 13.937,-10.07 29.023,-20.96 34.168,-37.36 9.23,-29.52 -19.442,-58.31 -48.977,-67.53 -33.476,-10.43 -69.543,-6.48 -104.426,-10.02 -34.894,-3.53 -72.8591,-18.12 -86.5466,-50.4 -18.9844,-44.8 18.4649,-92.59 55.5466,-124.07 74.258,-63.06 159.414,-113.28 250.528,-147.78 32.675,-12.37 67.082,-23.28 93.222,-46.46 26.141,-23.2 41.516,-63.04 25.035,-93.84 -16.503,-30.85 -57.75,-40.17 -92.066,-33.35 -34.316,6.8 -64.832,25.7 -97.441,38.41 -61.024,23.78 -140.352,20.78 -180.485,-30.98 -26.3708,-34.02 -29.3904,-81.92 -16.9607,-123.13 12.4257,-41.22 38.3747,-76.94 66.0117,-109.95 96.602,-115.38 221.117,-208.97 362.742,-259.82 141.637,-50.86 273.356,-66.01 415.653,-17.06" /><path
         id="path32"
         style="fill:#dadbd8;fill-opacity:1;fill-rule:nonzero;stroke:none"
         d="m 924.418,2047.18 c -37.539,134.54 -140.301,451.08 -201.508,599.96 -15.445,37.15 -30.703,73.86 -45.754,110.06 -15.082,36.1 -30.039,71.86 -46.863,105.96 -33.348,68.36 -70.68,131.58 -108.023,190.51 -37.336,58.97 -74.946,113.58 -110.489,164.42 -35.652,50.76 -69.785,97.46 -102.734,138.71 -65.652,82.78 -126.469,143.26 -169.914,183.11 -21.707,20.02 -39.035,35 -50.9103,45.03 -5.7852,4.82 -10.2891,8.58 -13.5625,11.31 -3.086,2.52 -4.7735,3.68 -4.7735,3.68 0,0 1.3867,-1.51 4.3242,-4.2 3.168,-2.85 7.5391,-6.77 13.1368,-11.8 11.5703,-10.35 28.6253,-25.63 50.0153,-45.9 42.852,-40.4 102.985,-101.21 167.992,-184.15 32.641,-41.34 66.481,-88.11 101.903,-138.96 35.312,-50.93 72.699,-105.6 109.816,-164.54 37.129,-58.88 74.246,-121.98 107.36,-190.08 16.699,-33.96 31.519,-69.48 46.617,-105.67 15.035,-36.17 30.269,-72.87 45.703,-110.02 61.168,-148.78 163.988,-464.98 201.758,-599.1" /><path
         id="path34"
         style="fill:#dadbd8;fill-opacity:1;fill-rule:nonzero;stroke:none"
         d="m 628.633,2863.85 c 0.453,-0.09 1.988,6.61 4.359,18.79 2.438,12.15 5.442,29.85 8.848,51.75 6.867,43.82 14.351,104.62 22.437,171.7 8.09,67.12 16.618,127.65 24.414,171.2 3.829,21.8 7.149,39.4 9.625,51.52 2.399,12.14 3.524,18.92 3.071,19.03 -0.442,0.11 -2.41,-6.46 -5.602,-18.45 -3.254,-11.98 -7.285,-29.48 -11.715,-51.23 -9.019,-43.45 -18.308,-104.1 -26.402,-171.26 -7.926,-66.5 -15.094,-126.68 -20.48,-171.85 -2.723,-21.02 -5.004,-38.51 -6.758,-52.01 -1.586,-12.28 -2.25,-19.11 -1.797,-19.19" /><path
         id="path36"
         style="fill:#dadbd8;fill-opacity:1;fill-rule:nonzero;stroke:none"
         d="m 56.0469,2978.33 c -0.0117,-0.22 2.0234,-0.58 5.8984,-1.05 4.6602,-0.47 10.2539,-1.03 16.9766,-1.71 14.7304,-1.4 36.0431,-3.4 62.3051,-6.74 52.519,-6.24 124.789,-17.5 203.925,-33.44 79.145,-16.09 150.114,-33.74 201.055,-48.05 25.516,-6.98 46.016,-13.2 60.195,-17.44 6.485,-1.9 11.879,-3.49 16.371,-4.81 3.766,-1.03 5.778,-1.47 5.86,-1.24 0.074,0.22 -1.797,1.07 -5.43,2.51 -4.383,1.64 -9.652,3.63 -15.992,5.99 -13.945,5.01 -34.27,11.94 -59.688,19.51 -50.714,15.5 -121.718,33.93 -201.058,50.06 -79.32,15.98 -151.914,26.53 -204.731,31.58 -26.379,2.74 -47.8121,4.05 -62.6285,4.66 -6.7696,0.18 -12.3907,0.34 -17.0782,0.47 -3.9062,0.03 -5.9726,-0.06 -5.9804,-0.3" /><path
         id="path38"
         style="fill:#dadbd8;fill-opacity:1;fill-rule:nonzero;stroke:none"
         d="m 868.977,2230.33 c 0.207,-0.09 1.546,2.29 3.89,6.91 2.613,5.32 5.922,12.07 10.024,20.42 8.636,17.75 20.511,43.74 34.777,76.03 28.582,64.56 65.32,154.92 104.592,255.16 39.29,100.27 75.29,190.81 102.73,255.77 13.61,31.85 24.73,57.89 32.81,76.83 3.64,8.54 6.57,15.47 8.87,20.9 1.96,4.82 2.9,7.39 2.69,7.49 -0.21,0.09 -1.55,-2.29 -3.91,-6.93 -2.59,-5.3 -5.91,-12.05 -10.01,-20.4 -8.64,-17.74 -20.5,-43.74 -34.76,-76.03 -28.59,-64.56 -65.34,-154.92 -104.62,-255.2 -39.275,-100.23 -75.279,-190.76 -102.72,-255.73 -13.602,-31.83 -24.731,-57.89 -32.809,-76.82 -3.633,-8.55 -6.566,-15.48 -8.871,-20.92 -1.965,-4.8 -2.894,-7.38 -2.683,-7.48" /><path
         id="path40"
         style="fill:#dadbd8;fill-opacity:1;fill-rule:nonzero;stroke:none"
         d="m 109.68,2484.44 c -0.063,-0.21 2.547,-1.26 7.566,-3.05 5.723,-1.95 13.047,-4.44 22.094,-7.51 20.019,-6.68 47.629,-15.88 81.398,-27.13 68.676,-22.98 163.168,-55.89 267.469,-92.5 104.348,-36.61 199.152,-68.86 268.262,-90.71 34.562,-10.94 62.59,-19.53 82.07,-25.11 9.215,-2.6 16.66,-4.7 22.469,-6.34 5.16,-1.36 7.898,-1.98 7.969,-1.76 0.07,0.22 -2.547,1.26 -7.579,3.06 -5.71,1.94 -13.023,4.43 -22.082,7.51 -20.007,6.67 -47.617,15.86 -81.386,27.11 -68.692,22.98 -163.184,55.91 -267.524,92.53 -104.301,36.59 -199.105,68.84 -268.203,90.69 -34.562,10.94 -62.601,19.53 -82.086,25.11 -9.203,2.6 -16.648,4.69 -22.465,6.33 -5.168,1.38 -7.902,1.99 -7.972,1.77" /><path
         id="path42"
         style="fill:#f3f2f1;fill-opacity:1;fill-rule:nonzero;stroke:none"
         d="m 4782.39,3592.95 h 1260.74 l -246.66,-175.37 v -146.37 c 0,-149.49 -123,-270.68 -274.74,-270.68 h -791.14 c -151.73,0 -274.74,121.19 -274.74,270.68 0,177.7 146.2,321.74 326.54,321.74" /><path
         id="path44"
         style="fill:#dadbd8;fill-opacity:1;fill-rule:nonzero;stroke:none"
         d="m 5583.77,3397.25 c 0,-1.44 -210.49,-2.61 -470.08,-2.61 -259.68,0 -470.12,1.17 -470.12,2.61 0,1.43 210.44,2.6 470.12,2.6 259.59,0 470.08,-1.17 470.08,-2.6" /><path
         id="path46"
         style="fill:#dadbd8;fill-opacity:1;fill-rule:nonzero;stroke:none"
         d="m 5583.77,3299.84 c 0,-1.44 -210.49,-2.61 -470.08,-2.61 -259.68,0 -470.12,1.17 -470.12,2.61 0,1.44 210.44,2.6 470.12,2.6 259.59,0 470.08,-1.16 470.08,-2.6" /><path
         id="path48"
         style="fill:#f3f2f1;fill-opacity:1;fill-rule:nonzero;stroke:none"
         d="M 2869.72,592.422 H 1377.89 L 1620.91,417.059 V 72.0391 C 1620.91,32.25 1653.16,0 1692.95,0 h 1176.77 c 39.79,0 72.05,32.25 72.05,72.0391 V 520.379 c 0,39.781 -32.26,72.043 -72.05,72.043" /><path
         id="path50"
         style="fill:#dadbd8;fill-opacity:1;fill-rule:nonzero;stroke:none"
         d="m 2807.5,348.59 c 0,-1.43 -225,-2.602 -502.49,-2.602 -277.58,0 -502.53,1.172 -502.53,2.602 0,1.441 224.95,2.609 502.53,2.609 277.49,0 502.49,-1.168 502.49,-2.609" /><path
         id="path52"
         style="fill:#dadbd8;fill-opacity:1;fill-rule:nonzero;stroke:none"
         d="m 2807.5,216.129 c 0,-1.43 -225,-2.609 -502.49,-2.609 -277.58,0 -502.53,1.179 -502.53,2.609 0,1.441 224.95,2.609 502.53,2.609 277.49,0 502.49,-1.168 502.49,-2.609" /><path
         id="path54"
         style="fill:#f03d5f;fill-opacity:1;fill-rule:nonzero;stroke:none"
         d="M 5915.59,95.8711 H 4169.63 c -214.22,0 -387.87,173.6489 -387.87,387.8669 V 1904.79 c 0,214.22 173.65,387.87 387.87,387.87 h 1745.96 c 214.21,0 387.87,-173.65 387.87,-387.87 V 483.738 C 6303.46,269.52 6129.8,95.8711 5915.59,95.8711" /><path
         id="path56"
         style="fill:#812212;fill-opacity:1;fill-rule:nonzero;stroke:none"
         d="M 5915.59,95.8711 H 4584.23 l 966.39,16.2499 -25.95,313.051 -2.25,16.25 c 0.06,0.207 0.13,0.43 0.19,0.637 l -26.11,186.312 -2.24,16.211 62.33,-135.273 382.75,-7.938 c 0,0 -224.45,656.049 -255.29,745.009 -84.42,243.5 -267.98,338.6 -430.96,369.83 0,0 -155.89,21.99 -293.89,21.99 -75.12,0 -144.96,-6.52 -181.45,-26.65 -166.61,-91.92 -177.48,-106.15 -177.48,-106.15 L 4591,567.398 4584.23,95.8711 h -414.6 c -214.22,0 -387.87,173.6489 -387.87,387.8669 V 1904.79 c 0,214.22 173.65,387.87 387.87,387.87 h 1745.96 c 214.21,0 387.87,-173.65 387.87,-387.87 v -378 h -0.64 l -8.56,-386.23 9.2,9.2 V 483.738 C 6303.46,269.52 6129.8,95.8711 5915.59,95.8711" /><path
         id="path58"
         style="fill:#f03d5f;fill-opacity:1;fill-rule:nonzero;stroke:none"
         d="m 6302.82,1526.79 h 377.66 l -386.22,-386.23 8.56,386.23" /><path
         id="path60"
         style="fill:#812212;fill-opacity:1;fill-rule:nonzero;stroke:none"
         d="m 6294.26,1140.56 8.56,386.23 h 377.66 l -386.22,-386.23" /><path
         id="path62"
         style="fill:#c0776a;fill-opacity:1;fill-rule:nonzero;stroke:none"
         d="m 3721.45,1289.35 -158.34,179.55 c -42.83,42.81 -57.47,63.47 -48.94,70.96 11.38,10.01 6.54,6.67 95.45,-60.06 0,0 -126.06,96.36 -82.34,96.96 7.69,0.1 29.08,-12.4 52,-27.44 -31.19,26.54 -39.82,44.37 -33.91,52.93 10.18,14.73 87.27,-38.7 122.76,-64.48 -29.05,21.64 -84.32,63.6 -94.07,76.75 -13.32,17.98 13.69,16.54 35.71,9.02 24.71,-8.44 161.19,-78.09 201.63,-96.13 27.81,-12.41 37.57,12.75 37.57,12.75 14.89,62.52 59.87,103.27 77.24,108.59 17.37,5.28 30.48,-16.78 18.21,-32.69 -9.91,-12.86 -19.93,-39.25 -26.65,-59.36 -5.52,-16.58 -8.37,-33.91 -8.06,-51.26 0.34,-20.2 1.41,-37.29 2.71,-51.78 l 144.63,-198.54 -241.96,-140.33 -93.64,174.56" /><path
         id="path64"
         style="fill:#b85549;fill-opacity:1;fill-rule:nonzero;stroke:none"
         d="m 3664.54,1452.25 c -1.63,-2.26 -29.75,17.08 -62.82,43.22 -33.07,26.13 -58.38,49.03 -56.54,51.14 1.83,2.1 29.96,-17.24 62.82,-43.21 32.85,-25.97 58.16,-48.87 56.54,-51.15" /><path
         id="path66"
         style="fill:#b85549;fill-opacity:1;fill-rule:nonzero;stroke:none"
         d="m 3695.38,1483.85 c -1.6,-2.3 -32.72,16.63 -69.52,42.25 -36.8,25.65 -65.33,48.27 -63.73,50.57 1.59,2.28 32.71,-16.63 69.51,-42.27 36.8,-25.63 65.33,-48.27 63.74,-50.55" /><path
         id="path68"
         style="fill:#b85549;fill-opacity:1;fill-rule:nonzero;stroke:none"
         d="m 3717.75,1517.43 c -1.56,-2.31 -31.31,15.1 -66.45,38.89 -35.14,23.8 -62.34,44.95 -60.78,47.26 1.56,2.32 31.31,-15.1 66.45,-38.89 35.13,-23.79 62.35,-44.96 60.78,-47.26" /><path
         id="path70"
         style="fill:#c0776a;fill-opacity:1;fill-rule:nonzero;stroke:none"
         d="m 3925.9,1426.32 576.77,-731.441 -132.08,-307.5 c 0,0 -158.21,35.012 -206.19,101.672 -47.97,66.66 -442.95,800.299 -442.95,800.299 l 204.45,136.97" /><path
         id="path72"
         style="fill:#17282f;fill-opacity:1;fill-rule:nonzero;stroke:none"
         d="m 5390.11,2449.81 c 41.51,-35.96 41.36,-99.39 36.57,-154.1 -4.8,-54.72 -8.45,-117.03 29.44,-156.79 31.23,-32.77 87.93,-47.12 95.22,-91.8 3.4,-20.85 -7.54,-43.27 -26.06,-53.43 -18.52,-10.15 -43.31,-7.32 -59.05,6.75 12.21,-35.28 3.76,-79.42 -26.85,-100.78 -30.62,-21.37 -81.84,-8.22 -91.33,27.88 5.77,-23.9 -11.75,-50.81 -35.93,-55.21 -24.19,-4.39 -50.05,14.64 -53.06,39.03" /><path
         id="path74"
         style="fill:#17282f;fill-opacity:1;fill-rule:nonzero;stroke:none"
         d="m 4795.75,2080.67 c -10.34,-27.26 -45.11,-42.21 -72.01,-30.97 -26.89,11.24 -40.68,46.49 -28.54,73 9.52,20.8 32.02,35.81 34.17,58.59 2.59,27.58 -25.5,47.21 -50.46,59.24 -24.95,12.02 -54.14,27.64 -56.85,55.21 -2.61,26.61 21.19,47.31 41.14,65.12 19.94,17.81 39.58,45.32 27.28,69.07 -6.29,12.14 -19.38,19.14 -27.84,29.89 -18.72,23.8 -8.93,61.69 14.92,80.36 23.84,18.67 56.89,21.27 86.7,15.91 29.8,-5.35 57.83,-17.7 86.85,-26.34 95.73,-28.47 203.27,-14.39 288.42,37.78" /><path
         id="path76"
         style="fill:#c0776a;fill-opacity:1;fill-rule:nonzero;stroke:none"
         d="m 4972.88,1435.76 c 107.5,-21.75 212.56,46.82 235.93,153.98 l 141.85,650.62 c 37.29,158.27 -63.38,316.09 -222.61,348.99 l -14.9,2.18 c -149.89,21.96 -291.52,-74.85 -325.44,-222.5 -31.56,-137.33 -64.66,-289.46 -74.66,-364.15 -20.71,-154.64 130.17,-201.26 130.17,-201.26 l -27.07,-130.26 c -22.64,-108.96 47.66,-215.54 156.73,-237.6" /><path
         id="path78"
         style="fill:#17282f;fill-opacity:1;fill-rule:nonzero;stroke:none"
         d="m 4815.51,2267.08 c -2.12,-11.58 5.95,-22.92 18,-25.36 12.03,-2.42 23.51,4.97 25.63,16.55 2.12,11.58 -5.94,22.93 -17.97,25.37 -12.06,2.43 -23.54,-4.98 -25.66,-16.56" /><path
         id="path80"
         style="fill:#17282f;fill-opacity:1;fill-rule:nonzero;stroke:none"
         d="m 4809.82,2288.64 c 2.32,-3.28 20.82,6.64 44.55,3.1 23.73,-3.2 39.35,-17.95 42.35,-15.42 1.45,1.1 -0.58,6.7 -7.34,13.33 -6.67,6.58 -18.61,13.79 -33.39,15.89 -14.79,2.09 -28.02,-1.53 -35.98,-6.05 -8.12,-4.53 -11.34,-9.37 -10.19,-10.85" /><path
         id="path82"
         style="fill:#17282f;fill-opacity:1;fill-rule:nonzero;stroke:none"
         d="m 5047.38,2228.6 c -2.12,-11.58 5.95,-22.92 18,-25.35 12.03,-2.43 23.52,4.96 25.64,16.54 2.11,11.59 -5.95,22.94 -17.98,25.37 -12.05,2.43 -23.55,-4.98 -25.66,-16.56" /><path
         id="path84"
         style="fill:#17282f;fill-opacity:1;fill-rule:nonzero;stroke:none"
         d="m 5042.35,2250.07 c 2.32,-3.28 20.85,6.63 44.54,3.09 23.74,-3.19 39.36,-17.94 42.37,-15.41 1.44,1.1 -0.55,6.69 -7.36,13.32 -6.66,6.59 -18.6,13.8 -33.37,15.9 -14.8,2.09 -28.02,-1.53 -35.99,-6.05 -8.1,-4.54 -11.34,-9.37 -10.19,-10.85" /><path
         id="path86"
         style="fill:#17282f;fill-opacity:1;fill-rule:nonzero;stroke:none"
         d="m 4930.5,2086.75 c 0.31,1.33 -14.06,6.04 -37.51,12.59 -5.97,1.51 -11.53,3.55 -11.94,7.84 -0.79,4.59 2.71,10.74 6.67,17.36 7.85,13.83 16.06,28.32 24.67,43.51 34.49,62.03 60.41,113.39 57.9,114.76 -2.51,1.36 -32.51,-47.81 -67,-109.84 -8.36,-15.32 -16.35,-29.91 -23.95,-43.88 -3.3,-6.55 -8.39,-13.78 -6.63,-23.32 0.97,-4.77 4.94,-8.7 8.67,-10.31 3.71,-1.76 7.11,-2.32 10.08,-2.94 23.85,-4.82 38.75,-7.11 39.04,-5.77" /><path
         id="path88"
         style="fill:#17282f;fill-opacity:1;fill-rule:nonzero;stroke:none"
         d="m 5049.84,2343.92 c 1.4,-6.79 25.53,-7.2 52.87,-14.63 27.49,-6.88 48.74,-18.31 53.28,-13.07 2.05,2.53 -0.97,9.17 -9.13,16.74 -8.08,7.55 -21.57,15.58 -38,19.89 -16.45,4.27 -32.13,3.86 -42.87,1.22 -10.82,-2.62 -16.7,-6.94 -16.15,-10.15" /><path
         id="path90"
         style="fill:#17282f;fill-opacity:1;fill-rule:nonzero;stroke:none"
         d="m 4828.6,2356.01 c 3.38,-6 20.54,-2.8 40.24,-5.41 19.77,-1.92 35.75,-8.94 40.41,-3.86 2.08,2.49 0.25,8.27 -6.28,14.44 -6.42,6.13 -17.79,12.03 -31.35,13.6 -13.57,1.55 -25.99,-1.61 -33.63,-6.13 -7.76,-4.53 -10.85,-9.74 -9.39,-12.64" /><path
         id="path92"
         style="fill:#17282f;fill-opacity:1;fill-rule:nonzero;stroke:none"
         d="m 5207.85,2434.18 0.74,-0.8 c 21.74,-23.01 33.88,-53.47 33.65,-85.12 -0.01,-1.12 -0.02,-2.18 -0.03,-3.18 -0.41,-44.92 -8.06,-89.55 -8.04,-134.46 0.03,-44.91 8.71,-91.88 36.79,-126.94 11.54,-14.42 33.94,-26.46 47.08,-13.47 5.08,5.03 6.87,12.41 8.44,19.37 23.8,105.11 66.65,195.18 82.73,306.38 4.37,30.26 -5.7,60.75 -27.72,81.97 -20.84,20.09 -46.72,41.55 -74.37,33.09 -27.74,-8.47 -68.26,-51.97 -91.33,-69.56" /><path
         id="path94"
         style="fill:#c0776a;fill-opacity:1;fill-rule:nonzero;stroke:none"
         d="m 5288.39,2178.14 c 2.8,0.75 110.66,15.84 91.83,-89.2 -18.82,-105.04 -120.4,-64.47 -120.03,-61.43 0.35,3.05 28.2,150.63 28.2,150.63" /><path
         id="path96"
         style="fill:#b85549;fill-opacity:1;fill-rule:nonzero;stroke:none"
         d="m 5299.4,2061.56 c 0.52,0.25 1.61,-1.61 4.44,-3.59 2.77,-1.91 7.78,-3.8 13.63,-2.73 11.83,2.09 24.33,18.03 28.23,36.87 1.98,9.51 1.6,18.98 -0.43,27.12 -1.83,8.26 -5.84,14.52 -11.25,16.51 -5.32,2.28 -9.88,-0.35 -11.7,-3.08 -1.93,-2.69 -1.64,-4.9 -2.22,-4.98 -0.34,-0.21 -1.95,2.16 -0.31,6.35 0.8,2 2.48,4.26 5.3,5.84 2.89,1.6 6.79,1.98 10.6,0.86 8,-2.01 13.96,-10.77 16.19,-19.71 2.69,-9.06 3.33,-19.73 1.1,-30.42 -4.46,-21.04 -18.85,-38.9 -34.82,-40.57 -7.73,-0.61 -13.5,2.73 -16.24,5.78 -2.79,3.17 -2.92,5.62 -2.52,5.75" /><path
         id="path98"
         style="fill:#17282f;fill-opacity:1;fill-rule:nonzero;stroke:none"
         d="m 5308.29,2494.17 c 32.16,38.41 -30.15,109.47 -79.83,133.51 -49.68,24.05 -122.01,8.71 -176.37,-0.89 -34.29,-6.06 -69.1,-16.43 -103.32,-9.96 -22.94,4.34 -43.75,15.95 -64.4,26.85 -20.66,10.89 -42.28,21.41 -65.56,23.21 -23.28,1.81 -48.82,-6.98 -60.7,-27.09 -11.88,-20.1 -3.64,-51.24 18.78,-57.78 -26.85,20.33 -72.19,5.42 -81.77,-26.87 -9.57,-32.29 20.29,-69.49 53.89,-67.14 -13.35,13.57 -39.1,-1.85 -40,-20.86 -0.88,-19.01 14.11,-35.14 30.24,-45.23 41.18,-25.77 93.4,-27.12 141.2,-18.46 47.8,8.66 93.53,26.36 141.1,36.21 47.57,9.85 127.54,28.31 170.53,5.69 31.65,-16.66 48.99,-60.26 69.14,-54.15 19.47,5.91 33.81,23.3 40.34,42.57 6.55,19.27 6.67,40.04 6.73,60.39" /><path
         id="path100"
         style="fill:#33535f;fill-opacity:1;fill-rule:nonzero;stroke:none"
         d="m 5514,2006.46 c 0,0 2.13,0.3 5.52,2.39 3.37,2.03 8.02,6.1 11.38,12.99 3.24,6.84 5.32,16.38 3.45,27.15 -1.75,10.86 -8.77,21.92 -18.89,30.87 -10.19,9.04 -23.43,16.01 -37.85,22.06 -14.35,6.15 -30.11,11.75 -44.28,21.38 -14.18,9.54 -25.39,24.35 -32.15,41.73 -6.93,17.34 -9.72,36.93 -9.31,56.82 1.07,40.06 12.15,77.5 14.88,112.79 3.3,35.05 -1.87,68.41 -16.85,91.3 -14.76,22.94 -35.36,34.2 -49.86,37.52 -7.32,1.89 -13.24,1.77 -17.15,1.7 -3.93,-0.41 -5.96,-0.72 -5.94,-0.9 -0.02,-0.72 8.4,1.2 22.55,-2.81 13.89,-3.81 33.42,-15.21 47.21,-37.52 13.93,-22.17 18.65,-54.42 15.15,-88.86 -2.9,-34.64 -14.17,-72.02 -15.33,-113.1 -0.41,-20.47 2.49,-40.77 9.8,-58.88 7.1,-18.12 19.14,-33.87 34.23,-43.84 15.01,-10.01 31.06,-15.47 45.34,-21.41 14.33,-5.8 27.22,-12.38 37.08,-20.82 9.8,-8.39 16.55,-18.56 18.44,-28.59 2.03,-10.04 0.38,-19.13 -2.41,-25.73 -6.13,-13.49 -15.65,-15.64 -15.01,-16.24" /><path
         id="path102"
         style="fill:#33535f;fill-opacity:1;fill-rule:nonzero;stroke:none"
         d="m 4773.51,2584.27 c 0.06,0.13 -1.49,0.94 -4.56,2.4 -1.52,0.79 -3.46,1.63 -5.88,2.32 -2.38,0.86 -5.18,1.65 -8.45,2.15 -12.69,2.57 -34.15,0.51 -53,-16.21 l -0.02,-0.01 -0.06,-0.07 c -12.76,-14.52 -21.07,-37.36 -18.86,-62.62 1.66,-25.25 15.46,-52.09 38.59,-71.27 22.9,-19.52 54.1,-31.68 87.4,-35.17 33.41,-3.65 68.55,-0.26 103.81,6.38 57.55,10.97 109.78,33.01 153.02,59.1 21.8,12.65 42.44,24.73 63.15,32.8 20.6,8.29 41.19,11.92 60.03,12.27 37.95,0.66 67.64,-10.6 86.21,-20.37 18.74,-9.97 27.48,-18.15 27.87,-17.61 0,0 -8.21,8.77 -26.87,19.44 -18.5,10.44 -48.48,22.49 -87.26,22.31 -19.23,-0.1 -40.48,-3.63 -61.58,-11.92 -21.21,-8.06 -42.17,-20.15 -63.99,-32.66 -43.15,-25.71 -94.66,-47.25 -151.6,-58.13 -34.86,-6.57 -69.6,-9.95 -102.21,-6.47 -32.56,3.31 -62.72,14.96 -84.95,33.64 -22.44,18.39 -35.76,43.8 -37.65,68.02 -2.38,24.21 5.26,46.16 17.22,60.27 l -0.08,-0.07 c 17.54,16.1 38.2,18.8 50.58,16.74 12.74,-2.01 18.93,-5.84 19.14,-5.26" /><path
         id="path104"
         style="fill:#33535f;fill-opacity:1;fill-rule:nonzero;stroke:none"
         d="m 4832.04,2671.74 c 0,0 -1.13,-8.77 3.69,-23.64 4.89,-14.62 17.7,-34.77 41.4,-49.82 11.67,-7.57 25.81,-13.96 41.91,-17.37 16.04,-3.47 33.68,-4.22 51.95,-2.71 36.72,2.75 75.15,15.32 115.46,25.77 40.16,10.45 80.56,15.86 115.35,6.58 34.77,-8.91 61.36,-30.07 78.39,-50.9 17.26,-21.01 25.92,-41.83 30.02,-56.41 4.04,-14.72 4.5,-23.27 5.15,-23.19 0.18,0.01 0.08,2.13 -0.28,6.18 -0.18,4.08 -1.25,9.96 -2.85,17.54 -3.56,14.95 -11.82,36.44 -29.11,58.26 -17.07,21.61 -44.11,43.75 -80.08,53.27 -36,9.87 -77.47,4.35 -117.9,-6.17 -40.64,-10.54 -78.62,-23.09 -114.57,-26.04 -17.86,-1.61 -35.06,-1.02 -50.63,2.15 -15.56,3.1 -29.35,9.08 -40.8,16.22 -23.23,14.21 -36.1,33.33 -41.46,47.35 -5.3,14.26 -4.96,23.02 -5.64,22.93" /><path
         id="path106"
         style="fill:#b85549;fill-opacity:1;fill-rule:nonzero;stroke:none"
         d="m 4883.1,2008.1 c 1.75,-10.23 3.56,-20.62 8.13,-29.93 4.57,-9.31 12.38,-17.57 22.43,-20.17 10.7,-2.78 22.46,1.44 30.37,9.16 7.91,7.72 12.31,18.49 14.1,29.4 1.6,9.87 -0.43,22.47 -9.91,25.66 -3.94,1.32 -8.24,0.6 -12.34,-0.15 -18.46,-3.34 -36.92,-6.67 -55.39,-10.01" /><path
         id="path108"
         style="fill:#17282f;fill-opacity:1;fill-rule:nonzero;stroke:none"
         d="m 4892.83,1966.12 c 0.75,1.48 10.25,-6.44 27.54,-5.21 8.39,0.62 18.41,3.93 25.86,11.79 7.42,7.76 12.3,19.91 11.06,32.29 -0.22,3.07 -1.06,6.09 -1.95,8.82 -1.31,2.69 -0.97,2.48 -3.22,2.85 -2.2,0.11 -5.97,-0.39 -8.97,-0.57 -3.12,-0.25 -6.2,-0.48 -9.21,-0.72 -12.02,-0.89 -22.85,-1.57 -31.96,-2.01 -18.21,-0.87 -29.54,-0.76 -29.66,0.52 -0.11,1.27 10.99,3.49 29.05,6.04 9.02,1.27 19.79,2.63 31.76,4 3,0.33 6.07,0.67 9.19,1.02 3.29,0.27 5.91,0.86 10.28,0.83 2.11,-0.07 4.96,-0.64 7.29,-2.57 2.29,-1.9 3.35,-4.21 4.1,-6.08 1.27,-3.67 2.26,-7.34 2.57,-11.21 1.5,-15.45 -4.72,-30.03 -14.25,-39.27 -9.71,-9.43 -22.11,-12.51 -31.73,-12.31 -9.83,0.11 -17.32,3.23 -21.8,6.05 -4.52,2.88 -6.3,5.31 -5.95,5.74" /><path
         id="path110"
         style="fill:#b85549;fill-opacity:1;fill-rule:nonzero;stroke:none"
         d="m 4843.22,1803.62 c 0,0 100.78,-38.22 198.91,-10.44 0,0 -74.01,-62.04 -209.02,-38.22 l 10.11,48.66" /><path
         id="path112"
         style="fill:#fafaf9;fill-opacity:1;fill-rule:nonzero;stroke:none"
         d="m 4997,369.949 c -0.24,-0.258 -5.16,3.512 -13.84,10.531 -4.29,3.559 -9.6,7.852 -16.08,12.411 -6.44,4.621 -13.48,10.238 -21.94,15.531 -8.28,5.519 -17.39,11.527 -27.62,17.226 -9.96,6.161 -21.2,11.661 -32.88,17.711 -23.71,11.371 -50.53,22.332 -79.58,31.18 -29.14,8.551 -57.59,14.109 -83.65,17.633 -13.09,1.348 -25.5,2.93 -37.21,3.25 -11.68,0.848 -22.59,0.828 -32.55,0.75 -9.97,0.226 -18.94,-0.602 -26.85,-0.934 -7.93,-0.258 -14.72,-0.929 -20.26,-1.547 -11.1,-1.101 -17.28,-1.55 -17.34,-1.191 -0.06,0.352 6.02,1.469 17.1,3.199 5.52,0.942 12.32,1.91 20.27,2.442 7.94,0.621 16.96,1.711 27.01,1.711 10.03,0.308 21.03,0.546 32.81,-0.122 11.83,-0.14 24.37,-1.562 37.6,-2.8 26.35,-3.282 55.12,-8.762 84.56,-17.399 29.35,-8.941 56.4,-20.16 80.22,-31.883 11.74,-6.218 23,-11.918 32.96,-18.289 10.22,-5.898 19.28,-12.14 27.49,-17.918 8.4,-5.5 15.34,-11.382 21.64,-16.25 6.35,-4.812 11.5,-9.339 15.6,-13.171 8.31,-7.532 12.79,-11.809 12.54,-12.071" /><path
         id="path114"
         style="fill:#ec563c;fill-opacity:1;fill-rule:nonzero;stroke:none"
         d="m 4409.26,883.531 82.05,355.319 c 31.39,133.61 68.56,262 131.05,277.21 v -41.34 L 4595.63,459.59 c 0,0 -167.17,-190.371 -380.36,-84.551 -66.58,33.051 -188.1,265.551 -188.1,265.551 0,0 -282.29,504.49 -270.6,527.38 11.69,22.89 184.5,245.49 202.14,256.56 l 450.55,-540.999" /><path
         id="path116"
         style="fill:#ec563c;fill-opacity:1;fill-rule:nonzero;stroke:none"
         d="m 5253.09,1616.21 c 162.98,-31.23 346.54,-126.33 430.96,-369.83 30.84,-88.96 255.29,-745.009 255.29,-745.009 l -382.75,7.938 -62.33,135.273 30.41,-219.41 25.95,-313.051 -966.39,-16.2499 6.77,471.5269 9.27,938.002 c 0,0 10.87,14.23 177.48,106.15 103.52,57.11 475.34,4.66 475.34,4.66" /><path
         id="path118"
         style="fill:#77192a;fill-opacity:1;fill-rule:nonzero;stroke:none"
         d="m 5522.42,441.422 -25.92,186.949 26.11,-186.312 c -0.06,-0.207 -0.13,-0.43 -0.19,-0.637" /><path
         id="path120"
         style="fill:#d63b1e;fill-opacity:1;fill-rule:nonzero;stroke:none"
         d="m 5502.88,427.93 c -15.08,0 -35.61,9.07 -52.95,12.609 -18.39,3.742 -32.64,19.172 -39.98,36.441 -7.35,17.258 -8.94,36.34 -10.44,55.04 -15.87,198.011 -34.14,259.171 -50,457.179 38.75,-136.57 60.7,-144.301 120,-275.937 20.1,-44.621 26.38,-80.5 26.38,-80.5 l 0.61,-4.391 25.92,-186.949 c -3.16,-10.113 -10.33,-13.492 -19.54,-13.492" /><path
         id="path122"
         style="fill:#ec563c;fill-opacity:1;fill-rule:nonzero;stroke:none"
         d="m 4777.75,1510.07 3.23,20.58 30.89,197.57 c 1.85,11.92 12.61,20.38 24.63,19.38 l 380.51,-31.76 c 23.91,-2 41.75,-22.88 39.98,-46.82 l -8.47,-114.8 -118.82,-155.01 -171.08,-26.7" /><path
         id="path124"
         style="fill:#17282f;fill-opacity:1;fill-rule:nonzero;stroke:none"
         d="m 4586.74,1138.54 c 1.43,0 2.6,-154.778 2.6,-345.681 0,-190.968 -1.17,-345.718 -2.6,-345.718 -1.44,0 -2.61,154.75 -2.61,345.718 0,190.903 1.17,345.681 2.61,345.681" /><path
         id="path126"
         style="fill:#17282f;fill-opacity:1;fill-rule:nonzero;stroke:none"
         d="m 5564.71,477.68 c -0.08,-0.032 -0.5,0.742 -1.23,2.25 -0.84,1.808 -1.87,4.039 -3.14,6.789 -2.82,6.39 -6.7,15.179 -11.6,26.301 -10.03,23.339 -24.25,56.398 -41.75,97.109 -34.94,82.519 -82.93,195.883 -135.94,321.121 -26.33,62.789 -51.42,122.59 -74.26,177.05 -12.13,26.88 -20.2,54.45 -24.58,80.37 -4.58,25.98 -6.45,50.54 -6.63,72.94 -0.47,44.83 6.24,81.06 15.22,104.51 1.11,2.93 2.07,5.73 3.15,8.3 1.22,2.47 2.38,4.81 3.45,6.99 2.07,4.37 3.99,7.97 6,10.62 1.72,2.51 3.11,4.54 4.25,6.18 0.97,1.38 1.51,2.05 1.59,1.99 0.71,-0.42 -8.43,-11.23 -16.53,-34.76 -8.3,-23.38 -14.38,-59.32 -13.45,-103.78 1.19,-44.19 7.23,-97.98 31.95,-151.51 22.96,-54.4 48.17,-114.15 74.64,-176.88 52.47,-125.461 99.96,-239.032 134.53,-321.719 16.87,-40.969 30.57,-74.262 40.24,-97.742 4.52,-11.278 8.09,-20.2 10.69,-26.68 1.07,-2.828 1.95,-5.129 2.65,-6.988 0.58,-1.59 0.83,-2.422 0.75,-2.461" /><path
         id="path128"
         style="fill:#fafaf9;fill-opacity:1;fill-rule:nonzero;stroke:none"
         d="m 5371.72,1581.75 c 0,0 -3.53,-3.68 -11.11,-9.64 -7.57,-6 -19.64,-13.82 -36.46,-21.25 -16.86,-7.31 -38.56,-13.84 -64.29,-18.04 -25.74,-4.25 -55.23,-7.03 -87.98,-8.67 -32.75,-1.47 -68.62,-0.8 -106.99,-1.56 -38.3,-0.9 -79.5,-3.34 -120.98,-14.73 -41.15,-11.07 -83.56,-31.57 -113.79,-67.12 -14.84,-17.7 -25.86,-39.24 -31.6,-62.42 -5.86,-23.13 -6.05,-48.18 1.15,-71.52 3.82,-11.6 9.6,-22.37 16.75,-32 7.31,-9.45 16.64,-17.27 27.02,-22.75 10.34,-5.54 22.1,-8.25 33.4,-7.03 11.32,1.1 21.94,6.72 29.32,15.05 15,17.07 17.83,41.72 14.8,63.26 -1.59,10.94 -4.77,21.56 -9.51,31.24 -4.86,9.64 -11.15,18.55 -17.79,26.82 -27.35,33.02 -65.72,52.09 -102.52,60.76 -37.15,8.79 -73.59,7.02 -104.95,-1.19 -31.55,-7.86 -58.34,-20.9 -80.35,-34.36 -22.13,-13.44 -39.54,-27.55 -53.22,-39.58 -13.73,-12.02 -23.45,-22.38 -30.2,-29.22 -3.14,-3.37 -5.6,-6.01 -7.47,-8.01 -1.7,-1.78 -2.61,-2.67 -2.67,-2.61 0,0 12.06,16.42 38.98,41.35 13.54,12.32 30.87,26.76 53.05,40.55 22.06,13.81 49.02,27.25 80.97,35.44 31.74,8.57 68.95,10.62 106.84,1.84 37.56,-8.66 76.91,-27.95 105.23,-61.89 6.9,-8.55 13.33,-17.6 18.48,-27.73 5.02,-10.18 8.36,-21.26 10.05,-32.7 1.65,-11.43 1.68,-23.29 -0.62,-34.96 -2.29,-11.6 -7.04,-23.2 -15.31,-32.44 -8.18,-9.25 -20,-15.5 -32.54,-16.74 -12.53,-1.37 -25.32,1.66 -36.37,7.56 -11.1,5.85 -20.95,14.12 -28.73,24.15 -7.54,10.15 -13.6,21.45 -17.6,33.59 -7.54,24.46 -7.29,50.47 -1.22,74.37 5.95,23.96 17.34,46.15 32.72,64.45 31.27,36.63 74.68,57.35 116.44,68.47 42.14,11.41 83.74,13.7 122.15,14.41 38.52,0.58 74.32,-0.3 106.93,0.93 32.56,1.39 62.1,3.92 87.66,7.86 25.6,3.91 47.15,10.09 63.97,17.03 16.77,7.07 28.9,14.54 36.62,20.23 3.99,2.66 6.68,5.17 8.69,6.61 1.96,1.5 2.99,2.24 3.05,2.19" /><path
         id="path130"
         style="fill:#fafaf9;fill-opacity:1;fill-rule:nonzero;stroke:none"
         d="m 5702.39,1165.56 c 0.02,-0.19 -1.44,-0.42 -4.25,-0.72 -2.81,-0.22 -6.95,-0.75 -12.3,-0.88 -10.69,-0.53 -26.22,-0.35 -45.32,1.08 -19.1,1.38 -41.71,4.3 -66.7,7.74 -24.99,3.4 -52.44,7.24 -81.37,8.77 -28.89,1.37 -56.54,-0.82 -80.99,-6.09 -24.38,-5.44 -45.62,-13.65 -61.73,-23.5 -32.73,-19.57 -44.53,-41.55 -45.61,-40.44 -0.15,0.1 0.59,1.38 2.14,3.74 1.66,2.27 3.64,6.03 7.26,10.01 6.61,8.48 17.99,19.46 34.28,29.84 16.24,10.47 37.83,19.23 62.62,25.03 24.85,5.64 52.97,8 82.29,6.62 29.25,-1.56 56.82,-5.57 81.78,-9.22 24.96,-3.71 47.41,-6.99 66.35,-8.83 18.94,-1.9 34.33,-2.64 44.98,-2.72 10.64,-0.11 16.55,-0.02 16.57,-0.43" /><path
         id="path132"
         style="fill:#fafaf9;fill-opacity:1;fill-rule:nonzero;stroke:none"
         d="m 5462.07,717.25 c -0.12,-1.262 -20.07,7.141 -57.42,4.879 -18.57,-0.918 -41.11,-4.84 -66.61,-11.91 -25.57,-6.91 -54.03,-17.028 -86.02,-26.86 -31.84,-9.769 -68.06,-19.109 -107.78,-18.757 -39.51,-0.043 -81.95,7.82 -122.81,25.5 -40.98,17.238 -80.3,44.687 -112.01,81.41 -15.93,18.226 -29.78,39.047 -39.66,62.218 -9.73,23.11 -15.12,49.11 -11.43,75.09 3.83,25.692 15.94,50.258 35.5,66.891 9.75,8.23 21.17,14.57 33.66,17.238 12.39,2.699 25.27,2.231 37.2,-1.148 11.89,-3.371 23.19,-9.102 32.09,-17.563 8.87,-8.379 15.59,-19.258 18.03,-31.148 2.64,-11.75 1.45,-24.168 -2.71,-35.102 -4.14,-11.008 -10.95,-20.547 -18.73,-28.679 -15.68,-16.34 -35.23,-27.25 -54.9,-34.891 -9.93,-3.648 -20.06,-6.629 -30.13,-8.246 -5.03,-0.934 -9.99,-2 -14.95,-2.781 -5,-0.582 -9.95,-1.161 -14.86,-1.719 -39.4,-4.332 -76.53,0.008 -109.14,7.637 -32.67,7.812 -60.91,19.64 -84.26,32.429 -23.41,12.742 -42.04,26.383 -56.09,38.774 -3.51,3.066 -6.83,5.976 -9.97,8.726 -2.91,2.942 -5.64,5.703 -8.19,8.274 -5.17,5.027 -9.31,9.5 -12.36,13.379 -3.02,3.621 -5.39,6.468 -7.17,8.609 -1.59,1.949 -2.38,2.988 -2.3,3.039 0.07,0.063 0.99,-0.859 2.71,-2.699 1.87,-2.051 4.36,-4.781 7.54,-8.25 3.17,-3.75 7.42,-8.102 12.67,-12.988 2.59,-2.5 5.36,-5.18 8.32,-8.043 3.16,-2.668 6.52,-5.508 10.06,-8.508 14.15,-12.071 32.82,-25.36 56.16,-37.75 23.28,-12.43 51.35,-23.91 83.73,-31.403 32.31,-7.339 69.02,-11.398 107.85,-6.929 4.83,0.57 9.71,1.16 14.63,1.75 4.9,0.793 9.78,1.883 14.73,2.82 9.98,1.652 19.7,4.57 29.39,8.16 19.13,7.5 38.12,18.242 53.06,33.922 7.42,7.801 13.8,16.848 17.61,27.07 3.83,10.168 4.89,21.5 2.44,32.368 -4.57,21.921 -24.21,38.972 -46.61,44.812 -11.18,3.18 -23.26,3.578 -34.74,1.051 -11.48,-2.434 -22.26,-8.41 -31.41,-16.152 -18.43,-15.661 -30.06,-39.141 -33.71,-63.7 -3.52,-24.718 1.6,-49.871 11.05,-72.332 9.59,-22.527 23.13,-42.976 38.77,-60.91 31.08,-36.109 69.71,-63.226 110.02,-80.328 40.2,-17.531 81.99,-25.441 120.93,-25.59 39.1,-0.519 74.86,8.449 106.72,17.969 31.92,9.57 60.54,19.48 86.32,26.16 25.7,6.832 48.5,10.492 67.27,11.109 9.37,0.731 17.72,-0.207 24.91,-0.429 7.15,-1.047 13.25,-1.547 18.06,-2.66 4.58,-1.137 8.18,-2.039 10.89,-2.707 2.44,-0.653 3.68,-1.012 3.65,-1.102" /><path
         id="path134"
         style="fill:#fafaf9;fill-opacity:1;fill-rule:nonzero;stroke:none"
         d="m 4583.37,823.879 c -0.84,-0.359 -5.43,10.57 -15.14,26.871 -9.67,16.301 -25.18,37.621 -46.29,57.359 -21.19,19.68 -43.54,33.672 -60.47,42.161 -16.95,8.539 -28.17,12.359 -27.88,13.21 0.11,0.348 3,-0.32 8.17,-1.832 5.18,-1.437 12.5,-4.148 21.29,-8.058 17.59,-7.758 40.8,-21.559 62.44,-41.672 21.57,-20.156 36.96,-42.336 45.95,-59.348 4.51,-8.5 7.73,-15.609 9.53,-20.679 1.86,-5.051 2.73,-7.879 2.4,-8.012" /><path
         id="path136"
         style="fill:#fafaf9;fill-opacity:1;fill-rule:nonzero;stroke:none"
         d="m 4195.35,395.891 c -0.08,-0.039 -0.61,0.8 -1.57,2.488 -1.06,1.949 -2.43,4.43 -4.12,7.543 -3.58,6.648 -8.76,16.508 -15.17,29.348 -12.6,25.71 -31.16,63.179 -45.77,112.609 -6.99,24.742 -12.94,52.562 -14.33,82.922 -0.92,15.148 -0.06,30.949 1.91,47.019 2.35,16.051 6.31,32.309 11.84,48.508 11.7,32.004 30.18,64.262 58.67,88.832 27.91,24.399 66.43,41.481 106.74,37.442 19.8,-2.133 39.61,-10.204 52.59,-25.571 12.81,-15.019 18.98,-35.601 14.82,-54.672 -2.09,-9.461 -7.19,-18.25 -14.15,-24.718 -6.94,-6.563 -15.57,-10.911 -24.44,-13.321 -17.86,-5.011 -36.89,-1.761 -52.22,6.328 -15.52,8 -28.06,19.821 -38.2,32.512 -10.13,12.77 -18.02,26.602 -24,40.641 -11.74,28.219 -15.47,57.168 -13.36,82.969 2.08,25.902 10.11,48.46 19.84,66.48 9.7,18.129 21.1,31.898 31.33,42.02 10.32,10.08 19.38,16.75 25.76,20.81 3.12,2.14 5.72,3.44 7.38,4.44 1.7,0.94 2.57,1.39 2.62,1.31 0.12,-0.2 -3.26,-2.29 -9.41,-6.62 -6.15,-4.31 -14.92,-11.19 -24.9,-21.37 -9.91,-10.211 -20.91,-24 -30.21,-41.949 -9.32,-17.86 -16.93,-40.059 -18.74,-65.411 -1.83,-25.261 2.04,-53.531 13.66,-81 5.92,-13.648 13.69,-27.089 23.61,-39.449 9.89,-12.281 22.07,-23.59 36.79,-31.101 14.6,-7.61 32.18,-10.489 48.73,-5.809 16.47,4.211 31.3,16.981 34.93,34.359 3.76,17.149 -1.91,36.372 -13.78,50.192 -11.82,14.027 -30.4,21.758 -49.21,23.75 -38.37,3.887 -75.75,-12.481 -102.83,-36.113 -27.71,-23.77 -45.91,-55.27 -57.5,-86.59 -5.48,-15.867 -9.44,-31.797 -11.82,-47.539 -2.01,-15.789 -2.95,-31.211 -2.15,-46.2 1.19,-29.941 6.87,-57.5 13.57,-82.089 14.04,-49.172 32.04,-86.789 44.06,-112.743 6.07,-12.66 10.85,-22.617 14.27,-29.757 1.51,-3.2 2.72,-5.762 3.67,-7.77 0.8,-1.769 1.17,-2.68 1.09,-2.73" /><path
         id="path138"
         style="fill:#fafaf9;fill-opacity:1;fill-rule:nonzero;stroke:none"
         d="m 4071.91,1278.76 c 0.18,0.02 0.49,-1.42 0.92,-4.17 0.36,-2.77 1.13,-6.83 1.47,-12.12 1,-10.56 1.46,-25.97 -0.08,-44.91 -2.84,-37.68 -16.22,-90.43 -49.36,-138.64 -33.17,-48.21 -77.65,-79.568 -111.81,-95.701 -17.15,-8.207 -31.7,-13.297 -41.92,-16.129 -5.06,-1.578 -9.13,-2.32 -11.83,-2.969 -2.73,-0.59 -4.18,-0.812 -4.22,-0.641 -0.12,0.411 5.49,2.11 15.44,5.54 9.95,3.402 24.16,8.968 40.88,17.5 33.34,16.78 76.63,48.06 109.17,95.35 32.52,47.31 46.24,98.91 49.99,136.04 1.98,18.67 2.1,33.92 1.72,44.44 -0.37,10.52 -0.79,16.36 -0.37,16.41" /><path
         id="path140"
         style="fill:#fafaf9;fill-opacity:1;fill-rule:nonzero;stroke:none"
         d="m 5789.93,845.141 c 0.68,-0.871 -18.93,-8.993 -38.61,-35.262 -9.95,-12.859 -19.93,-29.527 -31.34,-48.008 -11.43,-18.48 -25.64,-38 -42.73,-56.492 -34.27,-37.109 -73.02,-62.52 -102.47,-77.047 -14.69,-7.461 -27.18,-12.184 -35.82,-15.32 -8.74,-2.871 -13.61,-4.293 -13.73,-3.953 -0.11,0.339 4.54,2.402 13,5.839 8.36,3.704 20.53,8.903 34.86,16.704 28.74,15.23 66.56,40.738 100.34,77.308 16.86,18.262 30.93,37.32 42.5,55.531 11.57,18.239 22,34.93 32.51,47.739 10.49,12.82 20.81,21.66 28.67,26.558 3.93,2.461 7.07,4.192 9.34,5.121 2.21,1 3.4,1.442 3.48,1.282" /><path
         id="path142"
         style="fill:#17282f;fill-opacity:1;fill-rule:nonzero;stroke:none"
         d="m 5249.49,1604.6 c 0.02,-0.18 -1.56,-0.58 -4.59,-1.18 -3.64,-0.65 -8.02,-1.43 -13.3,-2.37 -11.57,-1.91 -28.36,-4.45 -49.14,-7.25 -41.56,-5.63 -99.18,-12.15 -163.02,-16.83 -31.89,-2.32 -62.45,-4.42 -90.35,-3.25 -27.87,1.02 -52.91,5.58 -72.91,12.47 -20.09,6.74 -35.01,15.56 -44.52,22.49 -4.78,3.47 -8.26,6.45 -10.53,8.56 -2.24,2.14 -3.37,3.32 -3.25,3.45 0.3,0.35 5.19,-3.95 14.92,-10.34 9.75,-6.33 24.65,-14.49 44.52,-20.66 19.8,-6.31 44.41,-10.42 71.95,-11.18 27.54,-0.89 57.9,1.33 89.78,3.66 63.75,4.66 121.32,10.6 162.96,15.28 20.19,2.29 36.84,4.19 49.31,5.61 11.65,1.31 18.11,1.9 18.17,1.54" /><path
         id="path144"
         style="fill:#c0776a;fill-opacity:1;fill-rule:nonzero;stroke:none"
         d="m 5934.42,430.691 c 31.66,-164.64 -93.51,-317.742 -261.16,-319.441 l -757.44,8.41 19.89,245.262 649.44,96.867" /><path
         id="path146"
         style="fill:#c0776a;fill-opacity:1;fill-rule:nonzero;stroke:none"
         d="m 4982.58,353.762 c -3.48,-1.16 -47.22,18.449 -86.41,36.578 -41.6,19.25 -87.24,28.121 -133.03,25.789 l -180.55,-9.188 c 0,0 11.14,-29.781 30.29,-40.382 19.15,-10.579 131.41,-12.848 131.41,-12.848 l -5.75,-5.922 c -23.67,-24.348 -55.93,-38.48 -89.88,-39.32 l -17.24,-0.438 c -12.81,1.008 -25.45,3.481 -37.69,7.36 l -44.53,18.007 c -13.48,6.071 -27.72,5.082 -33.58,-8.488 -5.31,-12.269 -1.41,-29.191 35.35,-47.699 20.55,-10.371 96.75,-36.711 96.75,-36.711 0,0 1.12,-21.07 4.44,-32.16 3.33,-11.09 33.27,-22.18 33.27,-22.18 0,0 18.86,-38.82 26.61,-47.68 3.49,-3.98 30.6,-12.421 59.44,-20.511 46.59,-13.078 95.92,-12.77 142.28,1.07 l 68.82,20.551 v 209.59" /><path
         id="path148"
         style="fill:#b85549;fill-opacity:1;fill-rule:nonzero;stroke:none"
         d="m 4735.59,216.809 c -0.09,-1.161 -21.5,-0.039 -46.95,6.703 -25.49,6.648 -44.67,16.218 -44.17,17.277 0.52,1.223 20.22,-6.359 45.33,-12.91 25.05,-6.649 45.94,-9.738 45.79,-11.07" /><path
         id="path150"
         style="fill:#b85549;fill-opacity:1;fill-rule:nonzero;stroke:none"
         d="m 4729.24,174.539 c 0.01,-1.187 -11.65,-1.93 -25.4,1.84 -13.76,3.699 -23.45,10.242 -22.83,11.262 0.61,1.16 10.84,-3.36 24.02,-6.903 13.14,-3.617 24.26,-4.886 24.21,-6.199" /><path
         id="path152"
         style="fill:#b85549;fill-opacity:1;fill-rule:nonzero;stroke:none"
         d="m 4762.22,370 c 0.4,-0.43 -4.77,-6.262 -13.95,-14.898 -9.22,-8.563 -22.57,-20 -39.33,-29.793 -16.8,-9.77 -33.72,-15.258 -46.12,-17.789 -12.42,-2.52 -20.26,-2.711 -20.32,-2.2 -0.43,1.641 31.29,4.559 64.17,23.91 16.35,9.54 29.8,20.391 39.49,28.282 9.65,7.957 15.6,12.968 16.06,12.488" /><path
         id="path154"
         style="fill:#f03d5f;fill-opacity:0;fill-rule:nonzero;stroke:none"
         d="m 5000.97,386.832 -18.39,-277.363 713.52,-0.258 c 48.43,-0.02 95.95,13.141 137.47,38.07 96.37,57.879 146.13,169.949 124.43,280.25 -7.35,45.078 -24.49,97.758 -46.04,153.848 l -358.72,-59.027 11.47,-44.672 -563.74,-90.848" /><path
         id="path156"
         style="fill:#17282f;fill-opacity:1;fill-rule:nonzero;stroke:none"
         d="m 5729.96,500.859 c 0.03,-0.179 -2.45,-0.738 -7.21,-1.648 -5.25,-0.949 -12.17,-2.199 -20.82,-3.75 -18.7,-3.133 -44.78,-7.481 -76.76,-12.82 -65.4,-10.411 -154.82,-24.629 -253.59,-40.36 -98.9,-15.133 -188.41,-28.82 -253.87,-38.84 -32.1,-4.66 -58.27,-8.461 -77.03,-11.191 -8.7,-1.148 -15.67,-2.078 -20.97,-2.781 -4.81,-0.578 -7.35,-0.789 -7.37,-0.61 -0.03,0.172 2.45,0.743 7.21,1.653 5.26,0.937 12.19,2.187 20.83,3.75 18.7,3.117 44.79,7.476 76.77,12.82 65.4,10.398 154.8,24.629 253.61,40.348 98.86,15.129 188.34,28.832 253.8,38.84 32.1,4.671 58.27,8.46 77.03,11.191 8.71,1.148 15.7,2.078 21,2.777 4.8,0.582 7.34,0.793 7.37,0.621" /><path
         id="path158"
         style="fill:#fafaf9;fill-opacity:1;fill-rule:nonzero;stroke:none"
         d="m 5364.89,108.988 c -1.25,0.242 4.26,20.043 4.96,52.703 -0.02,8.149 0.16,17.079 -1.04,26.61 -0.5,9.578 -2.47,19.629 -4.38,30.211 -4.64,21 -12.08,43.59 -23.19,65.808 -11.21,22.211 -25.16,41.532 -39,57.989 -3.59,4.019 -7.08,7.929 -10.5,11.742 -3.46,3.758 -7.18,7.051 -10.58,10.429 -6.7,6.899 -13.76,12.399 -19.97,17.7 -25.5,20.461 -43.61,29.961 -43.03,30.941 0.18,0.328 4.7,-1.992 12.77,-6.461 4.04,-2.23 9.01,-4.922 14.35,-8.719 5.34,-3.8 11.89,-7.511 18.19,-12.871 6.44,-5.179 13.73,-10.59 20.65,-17.429 3.52,-3.371 7.34,-6.661 10.92,-10.411 3.51,-3.82 7.13,-7.75 10.83,-11.769 14.27,-16.563 28.58,-36.152 40.02,-58.781 11.33,-22.649 18.79,-45.75 23.25,-67.211 1.81,-10.809 3.65,-21.071 3.98,-30.828 1.02,-9.711 0.63,-18.789 0.42,-27.063 0.12,-8.289 -1.4,-15.68 -2.01,-22.207 -0.58,-6.543 -1.87,-12.062 -2.94,-16.551 -2.06,-9 -3.35,-13.922 -3.7,-13.832" /><path
         id="path160"
         style="fill:#fafaf9;fill-opacity:1;fill-rule:nonzero;stroke:none"
         d="m 5799.17,129.891 c 0,0 -11.99,-0.512 -33.1,3.98 -10.44,2.527 -23.25,6.129 -37.01,13.027 -13.67,6.911 -28.49,16.782 -41.69,31.071 -13.09,14.222 -24.72,32.851 -30.68,55 -2.84,11.051 -5.1,22.75 -5.28,34.929 -0.81,12.153 0.26,24.774 2.97,37.372 2.76,12.582 7.44,25.21 14.77,36.691 7.24,11.488 17.47,21.699 29.96,28.551 12.39,6.867 27,10.84 41.85,9.597 14.8,-1.007 29.54,-8.371 39.18,-20.257 9.74,-11.653 15.21,-27.09 13.14,-42.172 -2,-15.25 -12.4,-27.782 -24.55,-35.11 -24.96,-14.859 -53.86,-14.699 -78.86,-10.832 -51.06,8.481 -90.88,38.981 -111.65,71.453 -21.41,32.641 -26.76,64.84 -27.41,86.129 -0.63,21.621 2.83,33.211 2.83,33.211 0.68,-0.062 -2.06,-11.801 -0.81,-33.113 1.26,-21.008 7.12,-52.547 28.46,-84.18 20.65,-31.437 59.7,-60.777 109.34,-68.769 24.34,-3.688 52.33,-3.469 75.41,10.429 11.22,6.813 20.38,18.122 22.11,31.512 1.84,13.32 -3.07,27.449 -12.01,38.102 -8.88,10.879 -21.96,17.437 -35.61,18.437 -13.64,1.16 -27.3,-2.48 -38.94,-8.91 -23.85,-12.871 -37.26,-37.828 -42.53,-61.801 -2.66,-12.136 -3.8,-24.359 -3.07,-36.179 0.08,-11.84 2.2,-23.2 4.86,-33.938 5.6,-21.519 16.67,-39.672 29.24,-53.672 12.66,-14.058 26.99,-23.929 40.29,-30.949 13.38,-7.02 25.92,-10.852 36.17,-13.66 20.73,-5.039 32.7,-5.25 32.62,-5.949" /><path
         id="path162"
         style="fill:#ec563c;fill-opacity:1;fill-rule:nonzero;stroke:none"
         d="M 2968.9,3151.91 H 1181.99 c -217.47,0 -393.767,-176.3 -393.767,-393.77 v -636.8 H 402.668 l 385.555,-385.56 v -432.85 c 0,-217.47 176.297,-393.77 393.767,-393.77 H 2968.9 c 217.47,0 393.77,176.3 393.77,393.77 v 1455.21 c 0,217.47 -176.3,393.77 -393.77,393.77" /><path
         id="path164"
         style="fill:#17282f;fill-opacity:1;fill-rule:nonzero;stroke:none"
         d="m 2238.92,3084.58 c -11.31,-29.22 8.1,-61.15 29.86,-83.71 21.77,-22.56 48.13,-44.03 54.97,-74.63 5.74,-25.67 -3.77,-52.4 -1.46,-78.61 2.37,-26.82 16.81,-50.87 25.01,-76.51 14.86,-46.41 8.89,-97.11 -4.37,-143.99 -10.88,-38.46 -27,-76.27 -53.6,-106.1 -26.6,-29.83 -64.86,-50.92 -104.83,-50.18 -11.31,0.21 -23.56,2.65 -30.97,11.21 -6.42,7.4 -7.85,17.76 -8.96,27.49 -22.91,201.12 -22.94,404.83 -0.08,605.95" /><path
         id="path166"
         style="fill:#17282f;fill-opacity:1;fill-rule:nonzero;stroke:none"
         d="m 2217.83,2435.69 c 86.98,3.8 167.36,-79.49 160.46,-166.28 88.08,-21.44 150.29,-118.4 133.08,-207.4 -5.69,-29.38 -18.75,-57.35 -20.55,-87.22 -1.97,-32.58 9.59,-64.25 15.87,-96.28 11.37,-57.89 5.24,-119.09 -17.37,-173.57 -13.74,-33.1 -39.31,-67.28 -75.13,-68.29 -24.32,-0.69 -46.83,15.05 -60.35,35.28 -13.52,20.23 -19.52,44.46 -24.26,68.32 -15.51,78.13 -20.18,158.44 -41.61,235.15 -21.42,76.71 -63.07,152.31 -132.46,191.4 -38.34,21.59 -84.34,31.79 -114.78,63.55 -31.89,33.28 -39.21,86.04 -22.55,129 16.67,42.97 54.72,75.76 98.04,91.51 l 101.61,-15.17" /><path
         id="path168"
         style="fill:#17282f;fill-opacity:1;fill-rule:nonzero;stroke:none"
         d="m 1615.62,3012.94 c -1.07,37.18 33.31,65.9 67.92,79.51 34.59,13.62 73.06,18.75 103.91,39.51 27.31,18.39 45.67,47.06 68.79,70.5 56.72,57.49 145.28,81.34 223.2,60.08 77.91,-21.26 142.1,-86.77 161.76,-165.1 13.29,-52.94 4.22,-115.53 -37.51,-150.7 -48.43,-40.83 -120.23,-31.77 -182.29,-19.06 -62.05,12.7 -132.29,25.22 -184.1,-11.22 -31.25,-21.98 -49.16,-57.73 -68.26,-90.81 -19.09,-33.08 -43.07,-66.86 -79.19,-79.3 -36.12,-12.44 -85.17,9.04 -86.57,47.21" /><path
         id="path170"
         style="fill:#f8a58d;fill-opacity:1;fill-rule:nonzero;stroke:none"
         d="m 1762.2,3005.31 c -32.1,-3.47 -56.22,-30.92 -55.51,-63.21 l 37.11,-840.03 c 1.55,-99.21 146.58,-154.95 252.79,-152.48 107.27,2.49 110.73,55.1 112.07,149.49 2.24,157.69 2.05,216.88 2.11,215.98 0,0 135.49,22.8 163.19,199.71 13.76,87.98 9.03,232.17 1.34,350.02 -6.92,106.09 -77.5,236.1 -183.19,224.69 l -329.91,-84.17" /><path
         id="path172"
         style="fill:#17282f;fill-opacity:1;fill-rule:nonzero;stroke:none"
         d="m 2244.8,2753.76 c 0.45,-11.97 -9.32,-22.23 -21.82,-22.93 -12.47,-0.7 -22.97,8.42 -23.42,20.4 -0.45,11.97 9.32,22.24 21.79,22.94 12.5,0.7 23.01,-8.44 23.45,-20.41" /><path
         id="path174"
         style="fill:#17282f;fill-opacity:1;fill-rule:nonzero;stroke:none"
         d="m 2244.19,2789.71 c -2.81,-2.96 -20.02,9.72 -44.42,9.6 -24.38,0.23 -42.27,-12.36 -44.93,-9.38 -1.3,1.32 1.56,6.66 9.34,12.36 7.67,5.67 20.75,11.19 35.95,11.17 15.2,-0.05 28,-5.62 35.37,-11.33 7.51,-5.74 10.07,-11.09 8.69,-12.42" /><path
         id="path176"
         style="fill:#17282f;fill-opacity:1;fill-rule:nonzero;stroke:none"
         d="m 2010.3,2753.76 c 0.45,-11.98 -9.32,-22.23 -21.82,-22.93 -12.47,-0.69 -22.97,8.42 -23.43,20.39 -0.45,11.98 9.33,22.25 21.81,22.95 12.49,0.7 22.99,-8.44 23.44,-20.41" /><path
         id="path178"
         style="fill:#17282f;fill-opacity:1;fill-rule:nonzero;stroke:none"
         d="m 2004.3,2784.63 c -2.81,-2.97 -20.04,9.71 -44.43,9.59 -24.38,0.24 -42.26,-12.36 -44.92,-9.38 -1.3,1.32 1.52,6.66 9.34,12.36 7.67,5.68 20.74,11.2 35.95,11.17 15.2,-0.05 28,-5.62 35.37,-11.33 7.5,-5.74 10.06,-11.08 8.69,-12.41" /><path
         id="path180"
         style="fill:#17282f;fill-opacity:1;fill-rule:nonzero;stroke:none"
         d="m 2093.27,2603.83 c -0.12,1.39 15.05,4.04 39.63,7.24 6.23,0.66 12.12,1.91 13.16,6.16 1.46,4.51 -1.16,11.22 -4.19,18.47 -5.9,15.07 -12.07,30.85 -18.54,47.41 -25.75,67.51 -44.39,123.03 -41.67,124.04 2.73,1.01 25.81,-52.89 51.55,-120.4 6.19,-16.64 12.13,-32.51 17.76,-47.7 2.38,-7.07 6.45,-15.1 3.29,-24.45 -1.67,-4.66 -6.23,-8.04 -10.23,-9.13 -3.99,-1.23 -7.5,-1.31 -10.58,-1.5 -24.73,-1.38 -40.09,-1.53 -40.18,-0.14" /><path
         id="path182"
         style="fill:#f68260;fill-opacity:1;fill-rule:nonzero;stroke:none"
         d="m 2110.77,2315.06 c 0,0 -118.95,-7.93 -236.98,62.65 0,0 57.73,-121.35 234.69,-104.41 l 2.29,41.76" /><path
         id="path184"
         style="fill:#f68260;fill-opacity:1;fill-rule:nonzero;stroke:none"
         d="m 2083.08,2544.99 c -8.8,11.59 -24.19,17.92 -39.46,16.24 -10.59,-1.16 -21.28,-6.29 -27.69,-14.93 -6.41,-8.64 -7.74,-20.88 -1.87,-29.09 6.6,-9.25 20.37,-11.36 32.01,-8.02 11.64,3.33 21.65,11.02 31.16,18.68 2.62,2.12 5.31,4.34 6.95,7.24 1.64,2.89 1.98,6.69 -0.06,9.08" /><path
         id="path186"
         style="fill:#17282f;fill-opacity:1;fill-rule:nonzero;stroke:none"
         d="m 2021.48,2586.79 c 3.97,0.24 4.08,-26.25 26.8,-45 22.67,-18.82 50.91,-15.78 51.12,-19.48 0.38,-1.67 -6.27,-5.16 -18.19,-5.51 -11.69,-0.43 -28.77,3.29 -42.67,14.76 -13.86,11.5 -19.84,26.87 -20.77,37.74 -1.04,11.07 1.9,17.64 3.71,17.49" /><path
         id="path188"
         style="fill:#17282f;fill-opacity:1;fill-rule:nonzero;stroke:none"
         d="m 2015.19,2827.38 c -2.4,-6.63 -26.77,-3.55 -55.39,-7.06 -28.71,-2.94 -51.78,-11.37 -55.59,-5.43 -1.7,2.84 2.31,9.09 11.63,15.54 9.24,6.43 23.99,12.56 41.18,14.52 17.18,1.91 32.93,-0.78 43.37,-5 10.52,-4.22 15.82,-9.41 14.8,-12.57" /><path
         id="path190"
         style="fill:#17282f;fill-opacity:1;fill-rule:nonzero;stroke:none"
         d="m 2235.06,2860.32 c -4.28,-5.54 -21.11,0.17 -41.32,0.39 -20.21,0.94 -37.33,-3.8 -41.29,1.99 -1.73,2.81 0.95,8.37 8.42,13.63 7.36,5.24 19.68,9.55 33.58,9.16 13.89,-0.41 25.94,-5.41 32.98,-11.07 7.16,-5.68 9.51,-11.38 7.63,-14.1" /><path
         id="path192"
         style="fill:#17282f;fill-opacity:1;fill-rule:nonzero;stroke:none"
         d="m 1638.72,2423.48 c 48.63,-9.8 101.6,5.15 137.94,38.93 36.34,33.77 55.11,85.51 48.88,134.73 -5.5,43.44 -28.92,87.63 -13.86,128.74 19.91,54.35 96.1,71.07 116.31,125.3 11.76,31.53 1.2,68.4 14.52,99.3 12.53,29.05 43.1,45.78 72.84,56.54 29.75,10.75 61.65,18.18 86.63,37.59 24.97,19.41 40.55,56.05 24.44,83.28 -131.93,-15.81 -261.96,-47.41 -386.44,-93.9 -28.86,-10.78 -59.18,-23.73 -76.24,-49.38 -18.06,-27.15 -17.19,-62.22 -15.67,-94.78 7.41,-158.8 -16.76,-307.55 -9.35,-466.35" /><path
         id="path194"
         style="fill:#33535f;fill-opacity:1;fill-rule:nonzero;stroke:none"
         d="m 1596.56,2473.32 c -0.03,-0.08 -1,0.23 -2.89,0.95 -1.95,0.59 -4.64,1.9 -8.05,3.92 -6.73,4.02 -15.73,12.33 -22.06,26.08 -6.3,13.57 -10.02,32.57 -5.76,53.7 4.24,21.13 16.43,42.79 32.14,64.23 15.5,21.61 35.13,43.48 48.53,71.41 6.6,13.85 11.5,29.31 11.71,45.57 0.33,16.28 -4.87,32.61 -10.41,49.2 -5.63,16.51 -11.05,34.48 -10.44,53.46 0.77,18.81 6.22,37.76 16.14,54.58 9.81,16.81 23.87,31.77 41.34,42 17.37,10.75 38.19,14.5 58.25,16.62 20.16,2.27 40.26,3.43 58.35,10.19 18.24,6.45 32.31,20.38 40.99,36.92 8.93,16.49 13.98,34.61 19.43,52.15 5.29,17.64 11.65,34.84 19.94,50.51 16.28,31.47 39.29,57.82 66.3,74.52 26.99,16.72 57.09,23.55 83.96,21.77 26.96,-1.74 50.42,-12.48 66.05,-27.1 15.78,-14.5 25.11,-31.09 29.56,-45.36 4.61,-14.33 4.85,-26.23 4.11,-34.02 -0.69,-7.84 -2.08,-11.78 -2.08,-11.78 -0.34,0.06 0.68,4.09 1.03,11.85 0.4,7.71 -0.18,19.38 -4.98,33.31 -4.65,13.88 -14.04,29.92 -29.58,43.83 -15.39,14 -38.13,24.11 -64.34,25.59 -26.09,1.5 -55.34,-5.36 -81.44,-21.75 -26.14,-16.38 -48.49,-42.17 -64.33,-73.07 -8.08,-15.43 -14.22,-32.17 -19.45,-49.75 -5.39,-17.51 -10.42,-35.9 -19.7,-53.14 -4.65,-8.57 -10.48,-16.76 -17.87,-23.61 -7.34,-6.9 -16.29,-12.15 -25.78,-15.72 -19.12,-7.13 -39.6,-8.24 -59.59,-10.52 -19.99,-2.12 -39.71,-5.72 -56.21,-15.91 -16.63,-9.71 -30.13,-24.01 -39.56,-40.1 -9.54,-16.11 -14.78,-34.25 -15.57,-52.17 -0.63,-18.02 4.43,-35.2 10.03,-51.81 5.46,-16.58 10.84,-33.52 10.43,-50.76 -0.31,-17.14 -5.54,-33.19 -12.4,-47.37 -13.95,-28.58 -33.91,-50.42 -49.45,-71.72 -15.77,-21.13 -27.88,-42.21 -32.26,-62.66 -4.4,-20.35 -1.1,-38.95 4.76,-52.27 5.88,-13.49 14.37,-21.8 20.78,-26.02 6.45,-4.34 10.54,-5.36 10.37,-5.75" /><path
         id="path196"
         style="fill:#33535f;fill-opacity:1;fill-rule:nonzero;stroke:none"
         d="m 2110.54,3244.41 c 0.12,0.3 2.61,-0.28 6.87,-2.07 4.26,-1.76 10.18,-5 16.73,-10.11 13,-9.98 28.27,-29.41 32.17,-55.04 3.75,-25.67 -5.18,-48.71 -14.71,-62.05 -4.76,-6.81 -9.49,-11.63 -13.05,-14.56 -3.54,-2.94 -5.76,-4.23 -5.96,-3.98 -0.66,0.72 7.53,6.93 15.93,20.55 8.37,13.31 16.16,35.24 12.64,59.26 -3.65,24 -17.48,42.7 -29.39,52.99 -12,10.58 -21.65,14.13 -21.23,15.01" /><path
         id="path198"
         style="fill:#33535f;fill-opacity:1;fill-rule:nonzero;stroke:none"
         d="m 2502.31,2030.77 c -0.58,0.23 3.11,6.39 5.05,18.71 2.08,12.15 1.1,30.93 -8.65,50.92 -9.47,20.06 -29.36,39.23 -55.83,52.01 -13.2,6.46 -27.86,11.56 -43.45,15.48 -15.61,4.03 -32.12,7.37 -48.68,12.7 -16.46,5.27 -32.58,12.53 -44.65,24.4 -12.55,11.53 -18.5,27.75 -21.06,42.47 -2.73,14.85 -3.64,28.96 -6.94,41.55 -3.17,12.57 -9.12,23.3 -16.09,31.84 -14.09,17.21 -31.1,25.32 -42.78,29.11 -11.95,3.57 -19.03,3.58 -18.99,4.13 0.01,0.18 1.76,0.22 5.1,0.11 3.34,-0.15 8.25,-0.79 14.45,-2.3 12.13,-3.28 29.99,-11.07 45.05,-28.69 7.45,-8.73 13.93,-19.96 17.44,-33.09 3.6,-13.06 4.68,-27.35 7.47,-41.75 2.68,-14.34 8.23,-29.05 19.9,-39.72 11.23,-10.98 26.59,-17.95 42.7,-23.1 16.18,-5.22 32.61,-8.59 48.36,-12.72 15.81,-4.05 30.8,-9.36 44.31,-16.13 27.07,-13.33 47.61,-33.62 57.01,-54.71 9.69,-20.96 10.08,-40.47 7.33,-52.86 -1.29,-6.27 -3.09,-10.91 -4.51,-13.94 -1.51,-2.99 -2.38,-4.5 -2.54,-4.42" /><path
         id="path200"
         style="fill:#17282f;fill-opacity:1;fill-rule:nonzero;stroke:none"
         d="m 1733.12,2343.93 c -89.58,23.97 -166.98,111.72 -198.37,198.97 -31.4,87.25 -31.42,182.6 -23.37,274.98 5.84,66.95 17.57,137.75 62.03,188.15 67.03,75.97 139.55,114.76 240.82,111.61" /><path
         id="path202"
         style="fill:#f3f2f1;fill-opacity:1;fill-rule:nonzero;stroke:none"
         d="m 2256.11,2148.92 -83.5,20.98 c 19.62,15.55 25.09,35.51 16.57,58.24 -9.97,26.58 -35.6,44.12 -63.8,47.31 l -380.85,42.99 c -13.63,1.54 -26.91,-6.02 -31.94,-18.79 -16.91,-42.9 -17.49,-78.24 -1.73,-106.01 l -1.81,0.02 -73.35,-14.59 -124.07,-1097.41 814.78,38.08 -70.3,1029.18" /><path
         id="path204"
         style="fill:#17282f;fill-opacity:1;fill-rule:nonzero;stroke:none"
         d="m 2136.29,2165.71 c 0.05,-0.36 -5.4,-1.39 -15.29,-2.94 -9.89,-1.61 -24.28,-3.4 -42.12,-5.11 -35.65,-3.47 -85.25,-5.7 -139.92,-3.02 -54.69,2.76 -103.82,9.89 -138.96,16.89 -17.58,3.47 -31.72,6.67 -41.4,9.26 -9.69,2.52 -15.01,4.08 -14.92,4.43 0.08,0.35 5.55,-0.54 15.36,-2.45 9.8,-1.98 24.02,-4.62 41.62,-7.63 35.19,-6.03 84.14,-12.55 138.56,-15.3 54.39,-2.66 103.75,-1.03 139.36,1.49 17.81,1.24 32.23,2.46 42.17,3.45 9.95,0.94 15.49,1.28 15.54,0.93" /><path
         id="path206"
         style="fill:#dadbd8;fill-opacity:1;fill-rule:nonzero;stroke:none"
         d="m 1767.99,1991.34 c -1.2,0.79 11.57,22.02 28.52,47.4 16.95,25.38 31.66,45.31 32.86,44.52 1.19,-0.81 -11.58,-22.03 -28.53,-47.41 -16.95,-25.38 -31.66,-45.31 -32.85,-44.51" /><path
         id="path208"
         style="fill:#dadbd8;fill-opacity:1;fill-rule:nonzero;stroke:none"
         d="m 2030.63,1972.73 c -1.12,-0.9 -17.32,17.39 -36.18,40.85 -18.87,23.47 -33.25,43.22 -32.13,44.12 1.12,0.9 17.32,-17.38 36.19,-40.86 18.85,-23.46 33.24,-43.21 32.12,-44.11" /><path
         id="path210"
         style="fill:#dadbd8;fill-opacity:1;fill-rule:nonzero;stroke:none"
         d="m 1908.63,1833.27 c -1.41,-0.25 -6.93,24.19 -12.3,54.58 -5.38,30.41 -8.6,55.25 -7.18,55.5 1.42,0.25 6.92,-24.19 12.31,-54.59 5.37,-30.39 8.59,-55.24 7.17,-55.49" /><path
         id="path212"
         style="fill:#dadbd8;fill-opacity:1;fill-rule:nonzero;stroke:none"
         d="m 2109.12,1824.61 c 1.01,-1.03 -19.71,-23.06 -46.25,-49.21 -26.56,-26.16 -48.91,-46.52 -49.92,-45.51 -1,1.03 19.7,23.06 46.26,49.22 26.55,26.15 48.9,46.52 49.91,45.5" /><path
         id="path214"
         style="fill:#dadbd8;fill-opacity:1;fill-rule:nonzero;stroke:none"
         d="m 1840.24,1637.63 c -0.65,-1.12 -25.45,13.97 -49.77,39.89 -24.47,25.79 -38.08,51.43 -36.93,52.01 1.34,0.86 16.69,-23.14 40.71,-48.44 23.86,-25.45 46.92,-42.18 45.99,-43.46" /><path
         id="path216"
         style="fill:#dadbd8;fill-opacity:1;fill-rule:nonzero;stroke:none"
         d="m 1926.61,1493.25 c 0.45,-1.5 -22.83,-8.87 -49.2,-22.88 -26.48,-13.86 -45.7,-28.9 -46.68,-27.69 -0.91,0.95 17.19,18.12 44.25,32.3 26.97,14.32 51.36,19.55 51.63,18.27" /><path
         id="path218"
         style="fill:#dadbd8;fill-opacity:1;fill-rule:nonzero;stroke:none"
         d="m 2067.15,1483.89 c -0.55,-0.45 -6.69,6.03 -15.92,17.1 -9.24,11.06 -21.51,26.76 -34.29,44.65 -12.78,17.91 -23.65,34.6 -31.12,46.94 -7.47,12.32 -11.61,20.23 -11.02,20.6 0.63,0.39 5.86,-6.81 14.11,-18.59 9.4,-13.38 20.26,-28.84 32.27,-45.92 12.25,-16.88 23.35,-32.19 32.95,-45.41 8.47,-11.62 13.59,-18.92 13.02,-19.37" /><path
         id="path220"
         style="fill:#dadbd8;fill-opacity:1;fill-rule:nonzero;stroke:none"
         d="m 2081.18,1360.73 c 0.3,-1.37 -26.48,-8.49 -60.16,-14.02 -33.7,-5.59 -61.34,-7.45 -61.49,-6.06 -0.16,1.47 27.1,5.64 60.64,11.19 33.53,5.52 60.69,10.33 61.01,8.89" /><path
         id="path222"
         style="fill:#dadbd8;fill-opacity:1;fill-rule:nonzero;stroke:none"
         d="m 1853.72,2181.2 c -0.7,0.57 4.12,6.05 8.21,16.63 4.18,10.46 6.8,26.3 4.33,43.43 -2.48,17.16 -8.49,32.02 -12.9,42.65 -4.49,10.64 -7.42,17.24 -6.74,17.59 0.6,0.31 4.67,-5.66 10.08,-16.04 5.31,-10.35 12.1,-25.42 14.72,-43.47 2.61,-18.09 -0.79,-34.95 -6.11,-45.62 -5.26,-10.83 -11.25,-15.58 -11.59,-15.17" /><path
         id="path224"
         style="fill:#dadbd8;fill-opacity:1;fill-rule:nonzero;stroke:none"
         d="m 2005.9,2263.37 c 1.12,0.74 10.46,-13.03 15.01,-32.76 4.68,-19.7 2.42,-36.19 1.09,-36.02 -1.54,0.05 -1.66,15.98 -6.16,34.83 -4.34,18.89 -11.3,33.22 -9.94,33.95" /><path
         id="path226"
         style="fill:#f8a58d;fill-opacity:1;fill-rule:nonzero;stroke:none"
         d="m 2692.36,1481.51 379.09,665.71 45.67,115.47 c 0,0 118.13,254.05 126.38,279.91 9.52,29.87 26.21,32.46 36.98,28.2 16.79,-6.64 22.18,-31.66 14.79,-57.54 -2.55,-8.96 -48.49,-148.5 -48.49,-148.5 0,0 10.11,9.54 39.2,29.09 29.08,19.55 82.45,18.95 131.8,1.38 49.34,-17.58 61.61,-26.86 55.68,-46.34 -2.38,-7.83 -8.77,-12.69 -15.82,-15.7 -11.51,-4.91 -24.65,-4.84 -36.51,-0.8 -79.41,27.06 -114.59,-8.73 -114.59,-8.73 l -5.97,-15.11 c 0,0 59.66,19.11 93.62,-7.91 5.55,-4.41 9.48,-9.34 12.38,-14.46 21.14,-7.01 38.27,-25.28 43.49,-46.97 5.43,-22.57 -2.19,-47.81 -19.21,-63.6 -8.13,-7.54 -20.44,-13.03 -30.12,-7.62 -5.11,2.85 -8.3,8.13 -11.38,13.1 -1.62,2.62 -3.37,5.26 -5.42,7.54 l -22.67,-39.97 c 0,0 -55.7,-87.09 -75.66,-127.72 l -260.88,-695.22 c -36.16,-96.39 -144.35,-144.38 -240.08,-106.51 -104.13,41.18 -147.69,165 -92.28,262.3" /><path
         id="path228"
         style="fill:#f8a58d;fill-opacity:1;fill-rule:nonzero;stroke:none"
         d="m 3097.51,2149.48 c 13.38,-8.72 31.86,-2.8 43.93,7.65 12.07,10.44 20.24,24.67 31.53,35.94 33.76,33.75 90.27,36.91 122.37,72.24 4.48,4.92 8.45,12.4 4.59,17.82 -3.58,5.02 -11.1,4.36 -17.15,3.16 -51.69,-10.23 -103.39,-20.47 -155.08,-30.71" /><path
         id="path230"
         style="fill:#f68260;fill-opacity:1;fill-rule:nonzero;stroke:none"
         d="m 3127.7,2255.58 c -0.13,0.61 5.73,2.38 16.43,5.04 10.69,2.67 26.22,6.24 45.45,10.47 20.04,4.25 42.8,9.09 67.64,14.38 6.4,1.31 12.93,2.66 19.58,4.03 6.3,0.8 14.18,4.65 23.69,-0.79 4.61,-2.95 6.36,-9.5 5.05,-14.08 -1.08,-4.66 -3.42,-8.22 -6.07,-11.42 -5.34,-5.78 -11,-11 -17.47,-15.43 -25.83,-17.85 -54.13,-25.2 -76.69,-37.04 -11.36,-5.75 -21.47,-12.34 -29.45,-20.08 -7.98,-7.73 -14.25,-16.53 -20.88,-24.04 -12.65,-15.79 -29.49,-23.57 -41.09,-23.06 -11.91,0.23 -16.76,5.82 -16.38,5.92 0.36,0.84 5.65,-3.3 16.22,-2.42 10.58,0.77 24.79,8.08 36.37,23.66 6.1,7.49 12.07,16.59 20.5,25.25 8.42,8.65 19.14,15.95 30.87,22.14 23.33,12.64 51.5,20.42 75.32,37.03 5.94,4.04 11.22,8.96 15.84,13.88 4.34,4.92 5.87,10.85 2.74,12.49 -3.14,2.32 -10.27,0.92 -16.9,-0.46 -6.67,-1.27 -13.22,-2.52 -19.63,-3.74 -24.99,-4.58 -47.87,-8.78 -68.02,-12.48 -19.39,-3.42 -35.11,-6.04 -46.02,-7.65 -10.9,-1.61 -16.98,-2.21 -17.1,-1.6" /><path
         id="path232"
         style="fill:#f68260;fill-opacity:1;fill-rule:nonzero;stroke:none"
         d="m 3298.45,2308.42 c 1.03,-0.6 3.11,12.37 17.8,23.98 7.22,5.65 17.76,9.63 29.98,9.85 12.23,0.39 25.64,-2.53 39.53,-6.66 13.92,-4.07 27.55,-8.21 40.59,-9.2 12.97,-0.95 24.98,0.68 34.08,5.26 9.3,4.5 13.69,12.74 14.5,18.15 0.91,5.53 0.05,8.54 -0.17,8.52 -0.57,0.02 -0.53,-3.03 -2.03,-7.97 -1.47,-4.86 -5.66,-11.43 -14.08,-14.99 -8.26,-3.64 -19.63,-4.82 -31.81,-3.63 -12.26,1.2 -25.4,5.33 -39.47,9.45 -14.03,4.17 -28.21,7.15 -41.36,6.43 -13.15,-0.51 -24.85,-5.4 -32.34,-12.01 -7.63,-6.51 -11.57,-13.8 -13.5,-18.88 -1.91,-5.16 -2.04,-8.24 -1.72,-8.3" /><path
         id="path234"
         style="fill:#f68260;fill-opacity:1;fill-rule:nonzero;stroke:none"
         d="m 3297.96,2523.28 c -0.8,0.19 -4.08,-10.46 -9.31,-27.69 -5.91,-19.14 -12.95,-41.95 -20.72,-67.16 -8.16,-25.11 -15.54,-47.82 -21.73,-66.86 -5.64,-17.09 -9.1,-27.69 -8.32,-28 0.72,-0.29 5.53,9.81 12.18,26.59 6.68,16.78 15.09,40.26 23.42,66.51 8.3,26.25 14.94,50.29 19.14,67.84 4.23,17.56 6.1,28.59 5.34,28.77" /><path
         id="path236"
         style="fill:#f68260;fill-opacity:1;fill-rule:nonzero;stroke:none"
         d="m 3319.92,2266.79 c 0.08,-0.44 3.36,0.02 9.13,0.54 5.52,0.39 14.82,0.89 21.82,-5.85 3.41,-3.24 4.73,-8.32 3.52,-13.94 -1.02,-5.6 -4.09,-11.27 -7.1,-17.66 -2.96,-6.23 -6.11,-14.33 -3.7,-22.96 2.47,-8.34 9.38,-14.99 17.76,-17.88 8.59,-3 17.78,-1.33 24.92,2.46 7.21,3.88 12.98,9.36 16.57,16.14 6.37,13.05 9.13,25.42 10.91,35.97 1.6,10.56 1.51,19.37 0.27,25.29 -1.27,5.96 -3.29,8.78 -3.51,8.63 -0.49,-0.21 0.75,-3.23 1.27,-8.94 0.5,-5.72 -0.03,-14.11 -2.08,-24.26 -2.18,-10.02 -5.45,-22.29 -11.58,-34.14 -6,-10.82 -21.02,-20.33 -34.87,-15.66 -6.76,2.31 -12.31,7.76 -14.19,13.99 -1.87,6.27 0.32,13 3.11,19.14 2.75,6.21 5.97,12.4 6.98,19.08 1.32,6.52 -0.8,13.9 -5.43,17.71 -9.23,7.83 -19.48,6.11 -24.98,5.13 -5.85,-1.24 -8.89,-2.45 -8.82,-2.79" /><path
         id="path238"
         style="fill:#f68260;fill-opacity:1;fill-rule:nonzero;stroke:none"
         d="m 3385.34,2196.48 c -0.25,0.13 -1.97,-2.6 -1.76,-8.15 0.24,-5.34 3.03,-13.85 11.64,-19.56 8.43,-5.57 21.88,-6.61 33.65,-0.35 11.78,6.16 20.91,18.33 25.46,32.43 4.56,14.18 4.07,28.98 0.01,41.16 -4,12.31 -11.39,21.69 -18.55,28.02 -7.23,6.37 -14.31,9.82 -19.29,11.62 -5.02,1.77 -7.96,2.05 -8.05,1.73 -0.48,-1.04 11.43,-3.64 24.54,-16.37 6.39,-6.31 12.86,-15.27 16.23,-26.61 3.47,-11.25 3.73,-24.81 -0.43,-37.76 -4.14,-12.9 -12.37,-23.95 -22.46,-29.5 -10.01,-5.65 -21.61,-5.16 -28.98,-0.85 -7.49,4.34 -10.68,11.56 -11.51,16.3 -0.88,4.9 -0.01,7.77 -0.5,7.89" /><path
         id="path240"
         style="fill:#f68260;fill-opacity:1;fill-rule:nonzero;stroke:none"
         d="m 3259.08,2133.84 c 0.2,0.49 -4.5,3.12 -13.42,4.1 -8.75,0.97 -22.08,-0.3 -34.76,-8.3 l 4.26,-2.87 c 1.28,6.06 2.3,12.7 2.88,19.63 3.43,38.61 -8.87,68.39 -10.12,67.6 -1.74,-0.38 7.68,-29.96 4.33,-67.11 -0.57,-6.7 -1.47,-13.14 -2.55,-19.04 l -1.19,-6.51 5.45,3.64 c 11.18,7.48 23.26,9.44 31.53,9.46 8.4,0.04 13.38,-1.34 13.59,-0.6" /><path
         id="path242"
         style="fill:#f68260;fill-opacity:1;fill-rule:nonzero;stroke:none"
         d="m 3337.97,2371.04 c -1.52,-0.23 0.66,-11.99 11.26,-21.18 10.53,-9.3 22.47,-9.91 22.5,-8.36 0.35,1.66 -9.55,4.6 -18.66,12.74 -9.28,7.94 -13.5,17.36 -15.1,16.8" /><path
         id="path244"
         style="fill:#f03d5f;fill-opacity:1;fill-rule:nonzero;stroke:none"
         d="m 2154.54,929.109 396.43,-3.89 -66.69,287.701 22.28,-54.28 c 42.09,-102.53 141.95,-169.48 252.78,-169.48 h 0.01 c 125.36,0 212.01,93.28 265.06,206.87 124.02,265.59 243.54,693.29 243.54,693.29 l -241.79,212.39 c -174.93,-330.94 -339.37,-618.38 -339.37,-618.38 0,0 -47.48,144.32 -84.15,273.06 -36.66,128.7 -36.44,196.44 -92.79,260.66 -86.63,98.74 -210.13,123.31 -324.8,152.85 l -4.28,-534.38 -26.23,-706.411" /><path
         id="path246"
         style="fill:#f03d5f;fill-opacity:1;fill-rule:nonzero;stroke:none"
         d="m 1701.09,1327.16 721.96,-140.64 35.2,-277.36 -1107.01,0.02 c -128.39,-1.711 -230.46,107.24 -220.37,235.24 15.94,202.15 33.24,451.23 46.39,556.49 10.24,82.09 42.99,166.97 81.78,240.04 55.86,105.22 242.12,240.36 405.43,247.02 l 30.93,-687.73 5.69,-173.08" /><path
         id="path248"
         style="fill:#d63b1e;fill-opacity:1;fill-rule:nonzero;stroke:none"
         d="m 2550.97,925.219 -94.88,0.929 -33.04,260.372 -41.4,8.07 c -8.42,6.52 -18.42,11.1 -29.35,13.1 l -186.15,34.15 14.62,393.68 4.28,534.38 c 114.67,-29.54 238.17,-54.11 324.8,-152.85 56.35,-64.22 56.13,-131.96 92.79,-260.66 36.67,-128.74 84.15,-273.06 84.15,-273.06 0,0 164.44,287.44 339.37,618.38 l 241.79,-212.39 c 0,0 -119.52,-427.7 -243.54,-693.29 -53.05,-113.59 -139.7,-206.87 -265.06,-206.87 h -0.01 c -110.83,0 -210.69,66.95 -252.78,169.48 l -22.28,54.28 66.69,-287.701" /><path
         id="path250"
         style="fill:#9c2438;fill-opacity:1;fill-rule:nonzero;stroke:none"
         d="m 2456.09,926.148 -1.42,0.024 -48.11,228.648 c -3.39,16.13 -12.41,30.09 -24.91,39.77 l 41.4,-8.07 33.04,-260.372" /><path
         id="path252"
         style="fill:#858889;fill-opacity:1;fill-rule:nonzero;stroke:none"
         d="m 2165.96,1236.6 -464.87,90.56 465.06,-85.32 -0.19,-5.24" /><path
         id="path254"
         style="fill:#d63b1e;fill-opacity:1;fill-rule:nonzero;stroke:none"
         d="m 1348.26,909.16 c -121.17,-0.012 -218.13,98.54 -218.07,217.9 0,5.74 0.23,11.53 0.68,17.36 15.94,202.15 33.24,451.23 46.39,556.49 10.24,82.09 42.99,166.97 81.78,240.04 55.86,105.22 242.12,240.36 405.43,247.02 l 30.93,-687.73 5.69,-173.08 464.87,-90.56 215.69,-42.01 c 12.5,-9.68 21.52,-23.64 24.91,-39.77 l 48.11,-228.648 3.58,-17.012 -1107.01,0.02 c -0.83,-0.008 -1.68,-0.02 -2.5,-0.02 -0.16,0 -0.32,0 -0.48,0" /><path
         id="path256"
         style="fill:#9c2438;fill-opacity:1;fill-rule:nonzero;stroke:none"
         d="m 2381.65,1194.59 -215.69,42.01 0.19,5.24 186.15,-34.15 c 10.93,-2 20.93,-6.58 29.35,-13.1" /><path
         id="path258"
         style="fill:#17282f;fill-opacity:1;fill-rule:nonzero;stroke:none"
         d="m 1563.63,1347.24 c -0.18,0 -0.29,2.28 -0.33,6.61 0.02,4.87 0.04,11.14 0.07,18.92 0.1,17.06 0.23,40.67 0.4,69.55 0.08,58.72 -1.03,139.86 -5.59,229.32 -2.25,44.75 -5.18,87.33 -8.28,126.03 -2.92,38.72 -6.29,73.51 -14.51,101.57 -7.87,28.14 -20.57,48.65 -31.84,60.35 -11.23,11.81 -19.45,16.14 -19.04,16.7 0,0 8.58,-3.68 20.5,-15.29 11.94,-11.47 25.48,-32.26 33.91,-60.71 8.8,-28.36 12.58,-63.58 15.76,-102.22 3.37,-38.73 6.45,-81.35 8.7,-126.17 4.57,-89.59 5.09,-170.84 4.07,-229.61 -0.5,-29.38 -1.31,-53.15 -2.05,-69.58 -0.43,-7.76 -0.79,-14.03 -1.05,-18.89 -0.3,-4.32 -0.54,-6.59 -0.72,-6.58" /><path
         id="path260"
         style="fill:#17282f;fill-opacity:1;fill-rule:nonzero;stroke:none"
         d="m 2409.09,1166.94 c -0.56,-0.63 -7.22,10.34 -26.29,21.28 -9.47,5.42 -21.9,10.54 -36.88,14.74 -14.96,4.25 -32.44,7.56 -51.73,11.51 -77.14,15.72 -183.67,37.63 -301.72,59.67 -118.09,22.1 -225.39,39.86 -303.11,52.33 -38.51,6.18 -69.84,11.21 -92.06,14.78 -10.5,1.76 -18.84,3.15 -25,4.18 -5.71,1.01 -8.7,1.63 -8.67,1.81 0.02,0.18 3.06,-0.09 8.82,-0.77 6.2,-0.8 14.58,-1.86 25.15,-3.22 21.82,-2.9 53.38,-7.33 92.32,-13.13 77.89,-11.56 185.35,-28.75 303.5,-50.86 118.12,-22.06 224.57,-44.54 301.53,-61.19 19.22,-4.18 36.72,-7.75 51.79,-12.32 15.07,-4.51 27.61,-9.99 37.09,-15.78 9.52,-5.75 15.94,-11.68 19.8,-16.04 2.07,-2.06 3.27,-3.96 4.22,-5.1 0.89,-1.2 1.31,-1.84 1.24,-1.89" /><path
         id="path262"
         style="fill:#17282f;fill-opacity:1;fill-rule:nonzero;stroke:none"
         d="m 1565.77,1347.24 c 0.23,-0.93 -13.3,-4.06 -33.89,-12.44 -10.32,-4.11 -22.22,-9.94 -34.94,-17.21 -12.59,-7.5 -25.93,-16.6 -38.95,-27.41 -12.89,-10.95 -24.14,-22.54 -33.7,-33.65 -9.37,-11.28 -17.16,-21.99 -22.99,-31.44 -11.8,-18.84 -17.2,-31.63 -18.09,-31.25 -0.33,0.14 0.8,3.42 3.13,9.26 2.23,5.88 6.23,14.11 11.8,23.89 5.52,9.83 13.12,20.96 22.46,32.61 9.52,11.48 20.89,23.41 34.04,34.57 13.27,11.02 26.96,20.17 39.92,27.58 13.08,7.18 25.35,12.76 35.99,16.49 10.6,3.81 19.38,6.33 25.56,7.52 6.16,1.29 9.58,1.84 9.66,1.48" /><path
         id="path264"
         style="fill:#17282f;fill-opacity:1;fill-rule:nonzero;stroke:none"
         d="m 2498.13,1174.42 c -0.17,-0.03 -0.68,2.34 -1.49,6.87 -0.83,5.06 -1.92,11.66 -3.28,19.86 -2.76,17.27 -6.41,42.3 -10.62,73.26 -8.44,61.94 -18.65,147.71 -27.21,242.7 -8.52,95.04 -13.77,181.26 -16.52,243.7 -1.38,31.22 -2.25,56.5 -2.61,73.98 -0.13,8.31 -0.24,14.99 -0.32,20.12 -0.01,4.6 0.07,7.02 0.25,7.03 0.18,0.01 0.45,-2.4 0.8,-6.99 0.33,-5.11 0.76,-11.78 1.29,-20.08 1.05,-18.05 2.49,-43.13 4.27,-73.87 3.68,-62.36 9.51,-148.46 18.03,-243.42 8.55,-94.93 18.17,-180.69 25.67,-242.7 3.74,-30.57 6.79,-55.51 8.98,-73.45 0.95,-8.26 1.72,-14.9 2.31,-19.99 0.47,-4.58 0.64,-7 0.45,-7.02" /><path
         id="path266"
         style="fill:#17282f;fill-opacity:1;fill-rule:nonzero;stroke:none"
         d="m 2737.53,1281.97 c -0.28,-0.21 -2.33,2.14 -5.8,6.58 -3.54,4.41 -8.13,11.17 -13.31,19.85 -10.38,17.29 -22.13,43 -29.23,73.13 -7.01,30.16 -7.89,58.41 -6.25,78.52 0.79,10.07 1.9,18.17 3.11,23.68 1.14,5.53 1.93,8.54 2.29,8.48 0.89,-0.15 -1.09,-12.43 -1.72,-32.35 -0.68,-19.9 0.77,-47.55 7.64,-77.15 6.97,-29.56 17.94,-54.98 27.38,-72.51 9.41,-17.57 16.63,-27.7 15.89,-28.23" /><path
         id="path268"
         style="fill:#fafaf9;fill-opacity:1;fill-rule:nonzero;stroke:none"
         d="m 1560.7,1718.79 c 0.02,-0.18 -1.26,-0.44 -3.73,-0.79 -2.48,-0.25 -6.13,-1 -10.88,-1.05 -9.48,-0.61 -23.35,0 -40.08,3.14 -16.76,3.05 -36.16,9.23 -56.87,17.81 -20.73,8.58 -42.72,19.64 -65.76,31.08 -23,11.38 -45.45,21.12 -66.54,27.87 -21.11,6.67 -40.78,10.56 -57.47,11.23 -33.61,1.7 -53.39,-7.38 -53.64,-6.06 -0.07,0.18 1.12,0.73 3.44,1.64 2.36,0.79 5.73,2.44 10.37,3.49 9.11,2.72 22.9,4.92 39.96,4.61 17.09,-0.22 37.26,-3.8 58.77,-10.33 21.51,-6.6 44.27,-16.33 67.42,-27.78 23.08,-11.46 44.9,-22.6 65.32,-31.33 20.4,-8.73 39.36,-15.16 55.74,-18.63 32.84,-7.27 53.95,-3.68 53.95,-4.9" /><path
         id="path270"
         style="fill:#fafaf9;fill-opacity:1;fill-rule:nonzero;stroke:none"
         d="m 1684.32,1743.17 c 0.24,-1.42 -26.11,-7.09 -58.84,-12.66 -32.74,-5.58 -59.46,-8.96 -59.71,-7.53 -0.24,1.41 26.1,7.08 58.84,12.65 32.73,5.58 59.46,8.96 59.71,7.54" /><path
         id="path272"
         style="fill:#fafaf9;fill-opacity:1;fill-rule:nonzero;stroke:none"
         d="m 1556.23,1528.48 c 0.12,-0.33 -5.05,-2.54 -14.54,-6.27 -9.51,-3.66 -23.37,-8.69 -40.71,-14.29 -34.64,-11.27 -83.36,-24.52 -138.17,-34.17 -27.41,-4.81 -53.7,-8.29 -77.69,-10.69 -23.93,-2.53 -45.86,-3.76 -64.17,-1.74 -18.35,1.76 -32.7,6.91 -41.69,11.88 -4.5,2.48 -7.83,4.71 -9.89,6.45 -2.11,1.7 -3.15,2.64 -3.05,2.79 0.31,0.42 4.76,-3.11 13.86,-7.42 9.06,-4.31 23.12,-8.77 41.1,-10.04 17.96,-1.5 39.49,0.07 63.33,2.85 23.86,2.65 50.01,6.27 77.3,11.05 54.55,9.6 103.17,22.22 137.98,32.55 17.42,5.14 31.43,9.62 41.13,12.69 9.67,3.13 15.09,4.71 15.21,4.36" /><path
         id="path274"
         style="fill:#fafaf9;fill-opacity:1;fill-rule:nonzero;stroke:none"
         d="m 1681.5,1475.83 c 0.03,-1.44 -24.36,-3.01 -54.45,-3.51 -30.11,-0.5 -54.53,0.26 -54.55,1.7 -0.02,1.44 24.36,3.01 54.46,3.51 30.1,0.5 54.52,-0.26 54.54,-1.7" /><path
         id="path276"
         style="fill:#fafaf9;fill-opacity:1;fill-rule:nonzero;stroke:none"
         d="m 1166.91,1020.27 c -0.17,0.04 0.2,1.87 1.06,5.31 1.07,4 2.4,8.96 4.02,15 0.93,3.32 1.94,6.94 3.03,10.83 1.25,3.91 2.94,8.04 4.59,12.55 3.5,8.93 6.85,19.38 12.39,30.14 2.6,5.48 5.32,11.2 8.14,17.14 2.89,5.94 6.59,11.74 10.06,17.95 6.69,12.58 15.58,24.92 24.58,38.15 19.03,25.69 42.38,52.21 70.11,76.65 28.06,24.08 57.57,43.54 85.65,58.83 14.35,7.08 27.81,14.17 41.19,19.06 6.63,2.56 12.89,5.43 19.17,7.47 6.28,1.98 12.32,3.87 18.1,5.7 11.43,3.98 22.25,5.86 31.57,8.08 4.69,1.01 9.02,2.11 13.06,2.81 4.01,0.53 7.73,1.04 11.14,1.5 6.22,0.76 11.31,1.4 15.42,1.89 3.53,0.39 5.38,0.49 5.4,0.32 0.02,-0.18 -1.8,-0.64 -5.27,-1.35 -4.06,-0.76 -9.08,-1.71 -15.22,-2.86 -3.37,-0.6 -7.03,-1.24 -10.99,-1.94 -4,-0.84 -8.27,-2.08 -12.89,-3.21 -9.2,-2.48 -19.87,-4.58 -31.13,-8.77 -5.7,-1.89 -11.65,-3.88 -17.83,-5.96 -6.19,-2.11 -12.35,-5.04 -18.88,-7.67 -13.18,-5.01 -26.44,-12.18 -40.57,-19.3 -27.66,-15.37 -56.75,-34.71 -84.5,-58.53 -27.42,-24.17 -50.61,-50.3 -69.66,-75.55 -9,-13.02 -17.95,-25.15 -24.73,-37.51 -3.5,-6.1 -7.26,-11.8 -10.22,-17.63 -2.9,-5.84 -5.7,-11.45 -8.37,-16.83 -5.71,-10.58 -9.27,-20.84 -13,-29.61 -1.76,-4.43 -3.58,-8.49 -4.96,-12.33 -1.24,-3.82 -2.39,-7.36 -3.44,-10.62 -2,-5.92 -3.63,-10.76 -4.95,-14.68 -1.18,-3.34 -1.89,-5.08 -2.07,-5.03" /><path
         id="path278"
         style="fill:#fafaf9;fill-opacity:1;fill-rule:nonzero;stroke:none"
         d="m 1668.44,1327.42 c 1.07,-0.86 -21.91,-14.98 -41.08,-51.6 -9.52,-18.11 -17.76,-41.29 -22.98,-67.88 -5.32,-26.59 -7.41,-56.51 -9.47,-87.92 -2.06,-31.44 -4.41,-61.59 -10.24,-88.53 -5.74,-26.92 -14.72,-50.349 -25.06,-68.459 -10.39,-18.121 -21.76,-30.89 -30.49,-38.562 -4.41,-3.809 -7.93,-6.61 -10.52,-8.258 -2.52,-1.731 -3.88,-2.57 -3.99,-2.422 -1.05,0.891 22.19,14.621 41.78,51.02 9.72,17.992 18.19,41.111 23.58,67.661 5.48,26.56 7.69,56.47 9.75,87.89 2.05,31.42 4.3,61.56 9.96,88.53 5.56,26.94 14.31,50.44 24.44,68.68 10.18,18.23 21.37,31.15 29.99,38.94 4.34,3.88 7.82,6.74 10.38,8.43 2.49,1.78 3.85,2.63 3.95,2.48" /><path
         id="path280"
         style="fill:#fafaf9;fill-opacity:1;fill-rule:nonzero;stroke:none"
         d="m 1839.1,907.488 c -1.43,0.051 0.22,86.223 3.7,192.442 3.48,106.26 7.47,192.33 8.91,192.29 1.43,-0.04 -0.22,-86.2 -3.7,-192.46 -3.48,-106.229 -7.47,-192.319 -8.91,-192.272" /><path
         id="path282"
         style="fill:#fafaf9;fill-opacity:1;fill-rule:nonzero;stroke:none"
         d="m 2110.52,922.301 c -0.34,-0.09 -1.91,4.34 -4.44,12.488 -1.33,4.07 -2.8,9.082 -4.07,15 -1.32,5.922 -3.13,12.609 -4.21,20.18 -2.8,15.019 -4.67,33.171 -5.31,53.391 -0.32,20.22 0.77,42.5 4.19,65.61 3.66,23.09 9.3,44.67 15.66,63.87 6.68,19.09 13.9,35.86 21.08,49.35 3.29,6.9 7.02,12.74 10.06,17.98 2.98,5.28 5.89,9.62 8.37,13.1 4.86,7.01 7.68,10.78 7.98,10.58 0.86,-0.57 -9.91,-16.07 -23.12,-43.3 -6.69,-13.57 -13.47,-30.29 -19.81,-49.23 -6.04,-19.04 -11.46,-40.36 -15.06,-63.14 -3.39,-22.8 -4.6,-44.76 -4.55,-64.73 0.37,-19.97 1.83,-37.95 4.15,-52.899 4.44,-29.949 10.07,-47.961 9.08,-48.25" /><path
         id="path284"
         style="fill:#fafaf9;fill-opacity:1;fill-rule:nonzero;stroke:none"
         d="m 1649.61,2027.56 c -0.38,-0.85 -15.84,6.1 -41.77,14.48 -25.89,8.41 -62.61,17.41 -103.99,21.13 -41.4,3.6 -79.13,1.17 -106.1,-2.57 -26.99,-3.7 -43.43,-7.83 -43.65,-6.93 -0.1,0.35 3.94,1.65 11.33,3.7 7.38,2.14 18.24,4.54 31.77,6.87 27.04,4.71 65.22,7.76 107.11,4.12 41.87,-3.76 78.91,-13.45 104.71,-22.83 12.92,-4.67 23.19,-8.94 30.08,-12.34 6.92,-3.32 10.66,-5.3 10.51,-5.63" /><path
         id="path286"
         style="fill:#fafaf9;fill-opacity:1;fill-rule:nonzero;stroke:none"
         d="m 2439.55,1607.11 c -0.05,-0.74 -14.22,-0.3 -37.1,0.58 -22.87,0.88 -54.46,2.1 -89.35,2.98 -34.91,0.86 -66.52,1.21 -89.41,1.47 -22.89,0.25 -37.06,0.51 -37.08,1.26 -0.01,0.36 3.52,0.77 9.92,1.21 6.4,0.45 15.67,0.87 27.12,1.21 22.92,0.68 54.6,0.92 89.58,0.06 34.96,-0.88 66.59,-2.69 89.44,-4.51 11.43,-0.91 20.66,-1.79 27.03,-2.55 6.37,-0.77 9.88,-1.35 9.85,-1.71" /><path
         id="path288"
         style="fill:#fafaf9;fill-opacity:1;fill-rule:nonzero;stroke:none"
         d="m 2637.01,1644.48 c 0.29,-0.88 -12.55,-5.19 -32.04,-14.79 -19.48,-9.55 -45.28,-25.22 -70.03,-47.21 -24.69,-22.08 -43.2,-45.92 -54.92,-64.18 -11.77,-18.26 -17.53,-30.53 -18.36,-30.13 -0.33,0.15 0.85,3.32 3.28,8.97 2.34,5.68 6.39,13.61 11.95,23.09 11.05,18.99 29.45,43.66 54.58,66.14 25.2,22.38 51.81,37.84 71.93,46.65 10.06,4.43 18.41,7.54 24.32,9.22 5.88,1.77 9.17,2.58 9.29,2.24" /><path
         id="path290"
         style="fill:#fafaf9;fill-opacity:1;fill-rule:nonzero;stroke:none"
         d="m 2539.62,1965.07 c 0.07,-1.3 -20.35,3.17 -50.82,-7.12 -15.19,-4.84 -32.4,-13.06 -51.27,-22.8 -18.88,-9.62 -39.68,-20.93 -63.39,-28.49 -47.42,-15.48 -93.67,-14.22 -125.32,-8.17 -15.93,2.98 -28.46,6.94 -36.95,10 -8.44,3.24 -12.96,5.37 -12.84,5.67 0.34,0.99 18.8,-6.96 50.41,-12.04 31.38,-5.04 76.66,-5.66 123.09,9.5 23.16,7.37 43.77,18.38 62.84,27.81 19.03,9.53 36.68,17.55 52.34,22.03 15.59,4.69 28.92,5.85 37.98,5.44 4.54,0.03 8.04,-0.66 10.39,-0.99 2.35,-0.38 3.57,-0.66 3.54,-0.84" /><path
         id="path292"
         style="fill:#fafaf9;fill-opacity:1;fill-rule:nonzero;stroke:none"
         d="m 2489.74,1294.79 c 0.13,-0.33 -4.01,-2.24 -11.64,-5.44 -3.8,-1.64 -8.5,-3.51 -14.1,-5.31 -5.58,-1.83 -11.86,-4.19 -19.05,-5.99 -14.21,-4.16 -31.51,-7.82 -50.91,-10.59 -19.43,-2.49 -40.99,-3.94 -63.62,-3.36 -22.64,0.78 -44.07,3.52 -63.33,7.17 -19.2,3.93 -36.25,8.61 -50.19,13.62 -7.06,2.23 -13.19,4.95 -18.65,7.13 -5.48,2.13 -10.06,4.28 -13.75,6.14 -7.43,3.64 -11.45,5.8 -11.29,6.13 0.41,0.9 16.88,-7.03 44.85,-15.9 13.96,-4.51 30.91,-8.78 49.93,-12.42 19.07,-3.33 40.24,-5.88 62.58,-6.67 22.35,-0.56 43.62,0.72 62.86,2.92 19.2,2.49 36.38,5.72 50.58,9.39 28.45,7.18 45.37,14.11 45.73,13.18" /><path
         id="path294"
         style="fill:#fafaf9;fill-opacity:1;fill-rule:nonzero;stroke:none"
         d="m 2719.48,998.871 c -0.12,-0.133 -1.45,0.957 -3.88,3.179 -2.34,2.29 -6.14,5.38 -10.27,10.08 -8.69,8.99 -20.13,23.19 -31.64,42.44 -23.37,38.2 -43.28,98.91 -44.56,167.46 -1.24,68.54 12.16,129.49 22.68,172.65 5.37,21.64 10.23,39.01 13.72,50.96 1.67,5.49 3.05,10.02 4.18,13.73 1.01,3.13 1.63,4.74 1.8,4.69 0.18,-0.04 -0.1,-1.75 -0.79,-4.96 -0.87,-3.78 -1.94,-8.39 -3.23,-13.97 -3.04,-12.9 -7.13,-30.23 -12.09,-51.29 -9.59,-43.29 -22.29,-103.95 -21.06,-171.69 1.28,-67.7 20.3,-127.57 42.54,-165.75 10.95,-19.2 21.8,-33.59 29.96,-42.92 8.11,-9.38 12.97,-14.269 12.64,-14.609" /><path
         id="path296"
         style="fill:#fafaf9;fill-opacity:1;fill-rule:nonzero;stroke:none"
         d="m 3083.43,1338.41 c -0.77,-1.18 -17.23,16.87 -52.89,29.73 -17.66,6.49 -39.48,11.9 -64.04,16.64 -24.48,4.96 -51.84,9.48 -79.65,18.36 -55.83,17.8 -99.65,49.67 -126.73,76.2 -13.66,13.3 -23.54,25.18 -29.93,33.67 -3.26,4.2 -5.49,7.69 -7.07,10 -1.55,2.32 -2.28,3.6 -2.14,3.7 0.33,0.24 4.01,-4.34 10.79,-12.43 6.84,-8.05 17.05,-19.45 30.88,-32.26 27.44,-25.57 70.88,-56.42 125.79,-73.93 27.33,-8.73 54.49,-13.37 79.03,-18.61 24.57,-5.01 46.61,-10.87 64.39,-17.9 17.8,-7 31.11,-15.27 39.41,-21.96 4.37,-3.08 7.18,-6.19 9.27,-8.06 2.02,-1.94 3.01,-3.02 2.89,-3.15" /><path
         id="path298"
         style="fill:#fafaf9;fill-opacity:1;fill-rule:nonzero;stroke:none"
         d="m 3197.79,1672.14 c -0.26,-0.26 -4.06,3.07 -10.7,9.28 -3.28,3.15 -7.34,6.95 -12.29,11.08 -4.93,4.17 -10.3,9.18 -16.78,14.06 -12.57,10.25 -28.32,21.46 -46.45,32.85 -18.29,11.14 -39.06,22.3 -61.73,32.12 -22.78,9.63 -45.2,16.94 -65.88,22.49 -20.76,5.25 -39.75,8.9 -55.84,10.91 -8.01,1.32 -15.34,1.75 -21.75,2.43 -6.42,0.73 -11.96,1.05 -16.5,1.25 -9.07,0.51 -14.11,0.96 -14.11,1.32 0,0.36 5.03,0.6 14.17,0.7 4.57,0.11 10.16,0.1 16.63,-0.37 6.48,-0.4 13.89,-0.57 22,-1.67 16.28,-1.56 35.53,-4.87 56.58,-9.91 20.97,-5.36 43.71,-12.62 66.75,-22.35 22.94,-9.94 43.89,-21.37 62.23,-32.85 18.18,-11.74 33.87,-23.37 46.24,-34.08 6.39,-5.1 11.63,-10.35 16.4,-14.75 4.8,-4.37 8.67,-8.4 11.75,-11.78 6.23,-6.69 9.54,-10.49 9.28,-10.73" /><path
         id="path300"
         style="fill:#fafaf9;fill-opacity:1;fill-rule:nonzero;stroke:none"
         d="m 2322.83,2131.16 c 0.26,-0.63 -6.89,-4.36 -18.98,-9.15 -12.09,-4.8 -29.2,-10.48 -48.55,-15 -19.36,-4.51 -37.22,-6.98 -50.18,-8.02 -12.97,-1.05 -21.02,-0.86 -21.07,-0.19 -0.12,1.57 31.79,4.26 70.07,13.28 38.31,8.83 68.12,20.54 68.71,19.08" /><path
         id="path302"
         style="fill:#f8a58d;fill-opacity:1;fill-rule:nonzero;stroke:none"
         d="m 2677.49,722.691 c 5.57,-19.351 -10.6,-38.043 -30.55,-35.3 -10.81,1.488 -19.75,9.14 -22.88,19.589 l -8.43,31.489 1.23,-0.418 c 5.28,-18.891 -12.89,-36.219 -32.41,-34.332 -13.18,0.32 -24.5,19.152 -28.2,29.203 -21.76,-2.57 -42.41,10.199 -50.82,24.406 l -58.7,91.582 -108.69,79.512 65.73,234.908 233.98,-151.44 c 9.17,-7.13 10.57,-10.14 25.18,-23.679 l 151,-138.852 c -17.14,-10.281 -31.65,-9.488 -55.39,0 -23.74,9.5 -128.08,79.86 -128.08,79.86 l 47.03,-206.528" /><path
         id="path304"
         style="fill:#f68260;fill-opacity:1;fill-rule:nonzero;stroke:none"
         d="m 2477.37,915.949 c 0.22,0.281 2.69,-1.199 6.97,-4.097 2.42,-1.692 4.97,-3.473 7.72,-5.391 2.96,-2.043 6.57,-4.75 9.65,-8.422 3.14,-3.641 5.99,-8.211 7.94,-13.559 1.83,-5.218 3.74,-10.679 5.73,-16.371 3.99,-11.73 8.28,-24.347 12.78,-37.597 8.93,-26.742 16.74,-51.032 22.14,-68.692 5.41,-17.648 8.4,-28.679 7.71,-28.879 -0.68,-0.222 -4.92,10.418 -11.22,27.77 -6.3,17.359 -14.65,41.449 -23.57,68.148 -4.36,13.27 -8.52,25.922 -12.38,37.692 -1.83,5.73 -3.58,11.23 -5.26,16.508 -1.61,4.91 -4.01,9.16 -6.72,12.64 -2.71,3.571 -5.68,6.11 -8.58,8.449 -2.56,2.172 -4.93,4.192 -7.18,6.09 -3.9,3.403 -5.95,5.422 -5.73,5.711" /><path
         id="path306"
         style="fill:#f68260;fill-opacity:1;fill-rule:nonzero;stroke:none"
         d="m 2618.13,733.461 c -0.36,-0.082 -1.51,3.371 -3.35,9.68 -2.09,7.449 -4.6,16.371 -7.52,26.789 -6.31,22.609 -14.9,53.89 -25.77,87.949 -10.96,33.961 -22.32,64.551 -35.96,83.34 -6.71,9.402 -13.7,15.73 -19.18,19.121 -5.46,3.43 -9,4.422 -8.83,4.941 0.05,0.168 0.95,0.02 2.66,-0.422 1.74,-0.339 4.14,-1.308 7.18,-2.757 6.04,-2.981 13.8,-9.211 21.13,-18.68 14.91,-18.973 26.94,-49.844 37.96,-83.953 10.93,-34.239 18.97,-65.739 24.38,-88.629 2.68,-11.461 4.68,-20.75 5.92,-27.219 1.24,-6.461 1.73,-10.09 1.38,-10.16" /><path
         id="path308"
         style="fill:#f68260;fill-opacity:1;fill-rule:nonzero;stroke:none"
         d="m 2678.48,719.262 c -0.34,-0.102 -1.78,3.636 -4.08,10.488 -2.53,7.949 -5.62,17.691 -9.26,29.148 -7.6,24.68 -17.76,58.883 -28.66,96.743 -10.55,37.269 -20.09,70.968 -27.45,96.968 -3.86,12.121 -10.25,20.411 -16.01,24.442 -5.69,4.148 -9.83,4.699 -9.69,5.179 0.02,0.129 1.06,0.2 2.96,-0.218 1.89,-0.422 4.69,-1.301 7.87,-3.274 6.48,-3.707 13.9,-12.437 18.34,-24.879 8.24,-24.738 17.93,-58.898 28.98,-96.777 10.91,-37.852 20.5,-72.211 27.2,-97.16 3.01,-11.641 5.57,-21.531 7.67,-29.613 1.7,-7.02 2.47,-10.957 2.13,-11.047" /><path
         id="path310"
         style="fill:#33535f;fill-opacity:1;fill-rule:nonzero;stroke:none"
         d="m 4099.49,2887.72 c 0,-19.33 15.68,-35.01 35,-35.01 19.34,0 35.01,15.68 35.01,35.01 0,19.33 -15.67,35.01 -35.01,35.01 -19.32,0 -35,-15.68 -35,-35.01" /><path
         id="path312"
         style="fill:#33535f;fill-opacity:1;fill-rule:nonzero;stroke:none"
         d="m 3959.4,2887.72 c 0,-19.33 15.68,-35.01 35.01,-35.01 19.33,0 35,15.68 35,35.01 0,19.33 -15.67,35.01 -35,35.01 -19.33,0 -35.01,-15.68 -35.01,-35.01" /><path
         id="path314"
         style="fill:#33535f;fill-opacity:1;fill-rule:nonzero;stroke:none"
         d="m 3819.68,2905.22 c -9.67,-16.74 -3.93,-38.15 12.81,-47.81 16.74,-9.67 38.15,-3.93 47.81,12.81 9.67,16.74 3.94,38.15 -12.8,47.82 -16.75,9.66 -38.15,3.92 -47.82,-12.82" /><path
         id="path316"
         style="fill:#33535f;fill-opacity:1;fill-rule:nonzero;stroke:none"
         d="m 3992.24,3296.58 c 0,0.16 -2.4,0.2 -7.07,0.12 -5.14,-0.15 -12.04,-0.34 -20.8,-0.59 -4.58,-0.21 -9.71,-0.21 -15.34,-0.68 -5.63,-0.8 -11.74,-1.65 -18.35,-2.58 -6.66,-0.96 -13.8,-1.98 -21.41,-3.08 -7.51,-1.86 -15.49,-3.84 -23.92,-5.93 -33.61,-8.64 -74.33,-23.41 -115.96,-50.55 -41.6,-26.7 -84.83,-64.89 -119.92,-116.79 -34.42,-51.96 -60.99,-117.35 -68.02,-190.77 -0.69,-18.38 -2.91,-37.07 -1.14,-56.07 0.67,-9.48 0.47,-19.12 1.86,-28.68 1.44,-9.55 2.89,-19.18 4.35,-28.88 7.83,-38.3 19.23,-77.55 38.97,-114.1 19.28,-36.63 44.15,-71.49 74.52,-102.54 30.97,-30.42 67.13,-56.8 107.37,-77.14 40.13,-20.5 84.59,-34.65 130.88,-40.17 11.47,-2.27 23.2,-2.26 34.9,-2.97 11.72,-0.76 23.48,-1.19 35.29,-0.64 23.6,0.96 47.28,3.93 70.68,8.93 50.83,10.82 98.69,31.52 140.71,59.21 l -4.26,-0.43 c 48.77,-19.58 96.62,-38.78 143.32,-57.52 l 8.48,-3.41 -2.42,8.81 c -14.45,52.6 -28.52,103.75 -42.13,153.23 l -0.72,-3.79 c 40.22,53.46 65.86,114.49 76.48,175.1 5.33,30.28 7.58,60.5 5.57,89.7 -0.62,14.63 -1.32,29.07 -4.06,43.08 -1.1,7.04 -2.18,14.03 -3.25,20.97 -1.29,6.9 -3.38,13.58 -5.02,20.29 -27.69,107.86 -94.12,187.53 -159.91,233.12 -32.94,23.19 -65.42,39.83 -95.16,50.21 -7.41,2.65 -14.56,5.2 -21.44,7.67 -7.06,1.79 -13.85,3.52 -20.35,5.17 -6.48,1.6 -12.69,3.14 -18.61,4.61 -5.98,1.15 -11.74,1.76 -17.14,2.59 -10.84,1.38 -20.35,3.24 -28.7,3.66 -8.22,0.28 -15.23,0.51 -21.07,0.71 -5.33,0.12 -9.57,0.21 -12.86,0.28 -2.88,0.02 -4.35,-0.03 -4.35,-0.15 0,-0.13 1.47,-0.33 4.34,-0.6 3.28,-0.25 7.5,-0.59 12.81,-1.01 5.81,-0.39 12.77,-0.86 20.93,-1.41 8.27,-0.65 17.71,-2.74 28.43,-4.32 42.19,-7.73 105.42,-24.55 170.02,-71.79 64.51,-45.61 129.26,-124.52 155.89,-230.55 1.56,-6.6 3.6,-13.16 4.82,-19.94 1.03,-6.82 2.05,-13.69 3.09,-20.6 2.64,-13.77 3.25,-27.94 3.8,-42.31 1.86,-28.66 -0.48,-58.28 -5.81,-87.93 -10.63,-59.35 -35.92,-119.03 -75.43,-171.28 l -1.29,-1.71 0.55,-2.08 c 13.51,-49.51 27.48,-100.69 41.83,-153.31 l 6.07,5.4 c -46.69,18.8 -94.52,38.05 -143.27,57.69 l -2.24,0.9 -2.03,-1.34 c -41.12,-27.04 -87.89,-47.25 -137.57,-57.82 -22.86,-4.9 -46.01,-7.8 -69.08,-8.75 -11.56,-0.54 -23.06,-0.12 -34.52,0.63 -11.44,0.69 -22.92,0.65 -34.12,2.88 -45.26,5.34 -88.73,19.14 -128,39.14 -39.38,19.83 -74.8,45.57 -105.17,75.27 -29.78,30.33 -54.2,64.39 -73.19,100.21 -19.45,35.73 -30.72,74.13 -38.54,111.64 -1.46,9.5 -2.92,18.94 -4.37,28.3 -1.4,9.36 -1.23,18.82 -1.93,28.11 -1.83,18.64 0.29,36.98 0.87,55.03 6.57,72.08 32.29,136.43 65.81,187.81 34.18,51.3 76.47,89.3 117.28,116.08 40.83,27.22 80.91,42.33 114.07,51.42 8.33,2.23 16.2,4.33 23.62,6.3 7.54,1.24 14.6,2.4 21.18,3.48 6.55,1.08 12.6,2.08 18.18,2.99 5.58,0.62 10.68,0.77 15.22,1.13 8.73,0.64 15.58,1.14 20.69,1.51 4.66,0.39 7.06,0.66 7.06,0.83" /></g></g></svg>