<?xml version="1.0" encoding="iso-8859-1"?>
<!-- Generator: Adobe Illustrator 19.0.0, SVG Export Plug-In . SVG Version: 6.00 Build 0)  -->
<svg version="1.1" id="Capa_1" xmlns="http://www.w3.org/2000/svg" xmlns:xlink="http://www.w3.org/1999/xlink" x="0px" y="0px"
	 viewBox="0 0 412.4 412.4" style="enable-background:new 0 0 412.4 412.4;" xml:space="preserve">
<g>
	<g>
		<g>
			<path d="M327.597,0h-200c-24.8,0-44.8,20-45.2,44.8c-24,1.2-42.8,21.2-42.8,45.2v277.2c0,24.8,20.4,45.2,45.2,45.2h200
				c24.8,0,44.8-20,45.2-44.8c24-1.2,42.8-21.2,42.8-45.2V45.6C373.197,20.4,352.797,0,327.597,0z M315.197,367.2
				c0,16.8-13.6,30.4-30.4,30.4h-200c-16.8,0-30-13.6-30-30V90c0-16.8,13.6-30,30-30h161.6v69.6c0,4,3.2,7.6,7.6,7.6h61.2V367.2z
				 M261.597,122V72l44.4,50H261.597z M330.397,352.8V129.6c0-0.8-0.4-2-0.4-2.8c0-0.4-0.4-0.8-0.4-0.8c-0.4-0.4-0.4-0.8-0.8-1.2
				l-69.2-77.6c-0.4-0.4-1.2-0.8-2-1.2c-0.4,0-0.4-0.4-0.8-0.4c-0.8-0.4-2-0.8-3.2-0.8h-156c0.4-16.4,13.6-29.6,30-29.6h200
				c16.8,0,30,13.6,30,30v277.6h0.4C357.997,338.4,345.597,351.6,330.397,352.8z"/>
			<path d="M93.997,137.2h66.8c4,0,7.6-3.2,7.6-7.6c0-4-3.2-7.6-7.6-7.6h-66.8c-4,0-7.6,3.2-7.6,7.6
				C86.397,134,89.597,137.2,93.997,137.2z"/>
			<path d="M160.397,320.8h-66.4c-4,0-7.6,3.2-7.6,7.6c0,4,3.2,7.6,7.6,7.6h66.8c4,0,7.6-3.2,7.6-7.6
				C167.997,324.4,164.797,320.8,160.397,320.8z"/>
			<path d="M86.397,180c0,4,3.2,7.6,7.6,7.6h178.4c4,0,7.6-3.2,7.6-7.6c0-4-3.6-7.6-7.6-7.6h-178.4
				C89.997,172.4,86.397,175.6,86.397,180z"/>
			<path d="M272.397,209.6h-178.4c-4,0-7.6,3.2-7.6,7.6c0,4,3.2,7.6,7.6,7.6h178.4c4,0,7.6-3.2,7.6-7.6
				C279.997,213.2,276.397,209.6,272.397,209.6z"/>
			<path d="M272.397,247.2h-178.4c-4,0-7.6,3.2-7.6,7.6c0,4,3.2,7.6,7.6,7.6h178.4c4,0,7.6-3.2,7.6-7.6
				C279.997,250.4,276.397,247.2,272.397,247.2z"/>
			<path d="M272.397,284.4h-178.4c-4,0-7.6,3.2-7.6,7.6c0,4,3.2,7.6,7.6,7.6h178.4c4,0,7.6-3.2,7.6-7.6
				C279.997,287.6,276.397,284.4,272.397,284.4z"/>
		</g>
	</g>
</g>
<g>
</g>
<g>
</g>
<g>
</g>
<g>
</g>
<g>
</g>
<g>
</g>
<g>
</g>
<g>
</g>
<g>
</g>
<g>
</g>
<g>
</g>
<g>
</g>
<g>
</g>
<g>
</g>
<g>
</g>
</svg>
